<svg width="90" height="90" viewBox="0 0 90 90" fill="none" xmlns="http://www.w3.org/2000/svg">
<path d="M66.9199 38.4434C66.9199 26.3496 57.0762 16.5234 45 16.5234C32.9238 16.5234 23.0801 26.3496 23.0801 38.4434C23.0801 50.5195 32.9062 60.3633 45 60.3633C57.0937 60.3633 66.9199 50.5195 66.9199 38.4434ZM45 57.5332C34.4707 57.5332 25.8926 48.9727 25.8926 38.4258C25.8926 27.8789 34.4707 19.3359 45 19.3359C55.5293 19.3359 64.1074 27.8965 64.1074 38.4434C64.1074 48.9902 55.5293 57.5332 45 57.5332Z" fill="url(#paint0_linear_64_388)"/>
<path d="M71.8594 61.1192C72.6504 60.7149 73.3535 60.1875 73.8985 59.4492C75.3223 57.4981 74.9883 54.9492 74.6719 52.4707C74.461 50.8711 74.25 49.2012 74.6192 48.0762C74.9531 47.0215 76.0781 45.8438 77.1504 44.7188C78.8203 42.961 80.7012 40.9746 80.7012 38.461C80.7012 35.9473 78.8379 33.9258 77.168 32.168C76.0957 31.0254 74.9707 29.8653 74.6367 28.8106C74.2676 27.6856 74.4785 26.0156 74.6895 24.416C75.0059 21.9375 75.3223 19.3887 73.916 17.4375C72.4922 15.4688 69.9434 14.9942 67.4824 14.5196C65.9004 14.2207 64.2656 13.9219 63.334 13.2364C62.4024 12.5684 61.6289 11.127 60.8731 9.72073C59.7305 7.61135 58.4121 5.22073 56.0742 4.44729C53.8242 3.70901 51.5215 4.79885 49.2891 5.85354C47.7949 6.55667 46.2656 7.27737 45.0352 7.27737C43.8047 7.27737 42.2754 6.55667 40.7813 5.85354C38.5488 4.79885 36.2461 3.70901 33.9961 4.44729C31.6406 5.20315 30.4102 7.50589 29.1973 9.72073C28.4414 11.1094 27.6504 12.5684 26.7363 13.2364C25.7871 13.9219 24.1699 14.2383 22.5879 14.5196C20.127 14.9766 17.5781 15.4688 16.1543 17.4375C14.7305 19.3887 15.0645 21.9375 15.3809 24.416C15.5918 26.0156 15.8027 27.6856 15.4336 28.8106C15.0996 29.8653 13.9746 31.043 12.9023 32.168C11.2324 33.9258 9.35156 35.9121 9.35156 38.4258C9.35156 40.9395 11.25 42.9258 12.9023 44.6836C13.9746 45.8262 15.0996 46.9864 15.4336 48.041C15.8027 49.166 15.5918 50.836 15.3809 52.4356C15.0645 54.9141 14.748 57.4629 16.1543 59.4141C16.6992 60.1524 17.4023 60.6973 18.1934 61.084L10.5293 74.3555C10.248 74.8477 10.2832 75.4629 10.6348 75.9199C10.9863 76.377 11.5664 76.5703 12.1113 76.4297L23.4316 73.3887L26.4727 84.709C26.6133 85.2539 27.0879 85.6582 27.6504 85.7461C27.7207 85.7461 27.7734 85.7637 27.8262 85.7637C28.3184 85.7637 28.793 85.5 29.0391 85.0606L36.2285 72.5977C37.7578 72.4219 39.3047 71.7012 40.7988 70.9981C42.293 70.2949 43.8223 69.5742 45.0527 69.5742C46.2832 69.5742 47.8125 70.2949 49.3067 70.9981C50.8008 71.7012 52.3477 72.4395 53.877 72.5977L61.0664 85.0606C61.3125 85.5 61.7871 85.7637 62.2793 85.7637C62.3321 85.7637 62.4024 85.7637 62.4551 85.7461C63.0176 85.6758 63.4746 85.2715 63.6328 84.709L66.6738 73.3887L77.9942 76.4297C78.5391 76.5703 79.1192 76.377 79.4707 75.9199C79.8223 75.4629 79.8575 74.8477 79.5762 74.3555L71.8594 61.1192ZM28.2481 80.7364L25.7344 71.3321C25.541 70.5762 24.7676 70.1367 24.0117 70.3301L14.6074 72.8438L20.8652 61.9981C21.4102 62.1211 21.9727 62.2266 22.5352 62.3321C24.1172 62.6309 25.752 62.9297 26.6836 63.6153C27.6152 64.2832 28.3887 65.7246 29.1445 67.1309C30.1641 69.0117 31.3067 71.1035 33.2051 72.0879L28.2481 80.7364ZM45 66.7793C43.1367 66.7793 41.3086 67.6407 39.5508 68.4668C37.8106 69.293 36.0176 70.1367 34.8399 69.75C33.5567 69.3281 32.5899 67.5352 31.6406 65.8125C30.7266 64.1426 29.7949 62.4199 28.3535 61.3653C26.8945 60.3106 24.9434 59.9414 23.0625 59.5899C21.1465 59.2207 19.1602 58.8516 18.3691 57.7969C17.6133 56.7598 17.8594 54.7559 18.1055 52.8399C18.3516 50.9239 18.5977 48.9551 18.0352 47.2149C17.4902 45.5625 16.1543 44.1387 14.8711 42.7852C13.5 41.3438 12.0762 39.8496 12.0762 38.461C12.0762 37.0723 13.5 35.5781 14.8711 34.1367C16.1719 32.7656 17.5078 31.3594 18.0352 29.7071C18.5977 27.9668 18.3516 25.9981 18.1055 24.0821C17.8594 22.1485 17.6133 20.1621 18.3691 19.125C19.1426 18.0528 21.1289 17.6836 23.0625 17.3321C24.9434 16.9805 26.8945 16.6114 28.3535 15.5567C29.7949 14.5196 30.7266 12.7793 31.6406 11.1094C32.5899 9.36917 33.5567 7.59378 34.8399 7.1719C36.0352 6.78518 37.8281 7.62893 39.5508 8.4551C41.3086 9.28128 43.1367 10.1426 45 10.1426C46.8633 10.1426 48.6914 9.28128 50.4492 8.4551C52.1895 7.62893 53.9824 6.78518 55.1602 7.1719C56.4434 7.59378 57.4102 9.38675 58.3594 11.1094C59.2735 12.7793 60.2051 14.502 61.6465 15.5567C63.1055 16.6114 65.0567 16.9805 66.9375 17.3321C68.8535 17.7012 70.8399 18.0703 71.6309 19.125C72.3867 20.1621 72.1406 22.166 71.8946 24.0821C71.6485 25.9981 71.4024 27.9668 71.9649 29.7071C72.5098 31.3594 73.8457 32.7832 75.1289 34.1367C76.5 35.5781 77.9239 37.0723 77.9239 38.461C77.9239 39.8496 76.5 41.3438 75.1289 42.7852C73.8281 44.1563 72.4922 45.5625 71.9649 47.2149C71.4024 48.9551 71.6485 50.9239 71.8946 52.8399C72.1406 54.7735 72.3867 56.7598 71.6309 57.7969C70.8574 58.8692 68.8711 59.2383 66.9375 59.5899C65.0567 59.9414 63.1055 60.3106 61.6465 61.3653C60.2051 62.4024 59.2735 64.1426 58.3594 65.8125C57.4102 67.5528 56.4434 69.3281 55.1602 69.75C53.9649 70.1367 52.1719 69.293 50.4492 68.4668C48.6914 67.6407 46.8633 66.7793 45 66.7793ZM65.9883 70.3301C65.2324 70.1367 64.459 70.5762 64.2656 71.3321L61.752 80.7364L56.7774 72.1231C58.6582 71.1563 59.7656 69.1348 60.8379 67.166C61.5938 65.7774 62.3848 64.3184 63.2989 63.6504C64.2481 62.9649 65.8653 62.6485 67.4473 62.3672C68.0098 62.2617 68.5723 62.1563 69.1172 62.0332L75.375 72.8789L65.9883 70.3301Z" fill="url(#paint1_linear_64_388)"/>
<path d="M58.1836 29.8301C57.6387 29.2852 56.7422 29.2852 56.1973 29.8301L41.959 44.0684L33.8203 35.9297C33.2754 35.3848 32.3789 35.3848 31.834 35.9297C31.2891 36.4746 31.2891 37.3711 31.834 37.916L40.9746 47.0566C41.2383 47.3203 41.5898 47.4609 41.9766 47.4609C42.3633 47.4609 42.7148 47.3203 42.9785 47.0566L58.1836 31.8164C58.7285 31.2715 58.7285 30.375 58.1836 29.8301Z" fill="url(#paint2_linear_64_388)"/>
<defs>
<linearGradient id="paint0_linear_64_388" x1="45" y1="16.5234" x2="45" y2="60.3633" gradientUnits="userSpaceOnUse">
<stop stop-color="#FFBF00"/>
<stop offset="1" stop-color="#FF0047"/>
</linearGradient>
<linearGradient id="paint1_linear_64_388" x1="45.0264" y1="4.20532" x2="45.0264" y2="85.7637" gradientUnits="userSpaceOnUse">
<stop stop-color="#FFBF00"/>
<stop offset="1" stop-color="#FF0047"/>
</linearGradient>
<linearGradient id="paint2_linear_64_388" x1="45.0088" y1="29.4214" x2="45.0088" y2="47.4609" gradientUnits="userSpaceOnUse">
<stop stop-color="#FFBF00"/>
<stop offset="1" stop-color="#FF0047"/>
</linearGradient>
</defs>
</svg>
