<svg width="90" height="90" viewBox="0 0 90 90" fill="none" xmlns="http://www.w3.org/2000/svg">
<path d="M87.1789 48.0958L80.2947 32.9507C79.724 31.6993 78.8059 30.6382 77.6495 29.8935C76.4932 29.1488 75.1473 28.7518 73.7719 28.7499H61.1072V23.3749C61.1056 21.9499 60.5389 20.5837 59.5312 19.576C58.5235 18.5683 57.1573 18.0016 55.7323 18H10.941C9.51596 18.0016 8.14972 18.5683 7.14206 19.576C6.1344 20.5837 5.56762 21.9499 5.56606 23.3749V44.8747C5.56377 45.1115 5.60842 45.3463 5.69743 45.5657C5.78644 45.7851 5.91804 45.9846 6.08464 46.1528C6.25123 46.3211 6.44951 46.4546 6.66802 46.5457C6.88653 46.6369 7.12093 46.6838 7.35768 46.6838C7.59443 46.6838 7.82883 46.6369 8.04734 46.5457C8.26585 46.4546 8.46413 46.3211 8.63072 46.1528C8.79732 45.9846 8.92893 45.7851 9.01793 45.5657C9.10694 45.3463 9.15159 45.1115 9.1493 44.8747V23.3749C9.14983 22.8999 9.33877 22.4445 9.67467 22.1086C10.0106 21.7727 10.466 21.5838 10.941 21.5832H55.7323C56.2073 21.5838 56.6627 21.7727 56.9986 22.1086C57.3345 22.4445 57.5234 22.8999 57.524 23.3749V52.0414C57.5233 52.5163 57.3343 52.9717 56.9984 53.3075C56.6626 53.6433 56.2072 53.8323 55.7323 53.8329H34.2325C33.7603 53.8375 33.309 54.0283 32.9768 54.3638C32.6445 54.6992 32.4581 55.1523 32.4581 55.6245C32.4581 56.0967 32.6445 56.5498 32.9768 56.8853C33.309 57.2208 33.7603 57.4116 34.2325 57.4161H55.7323C57.1573 57.4146 58.5235 56.8478 59.5312 55.8401C60.5389 54.8325 61.1056 53.4662 61.1072 52.0412V32.3331H73.7719C74.4597 32.3341 75.1328 32.5325 75.7111 32.9049C76.2894 33.2772 76.7486 33.8078 77.0342 34.4336L77.7082 35.9164H70.0657C69.1156 35.9173 68.2047 36.2951 67.5328 36.9669C66.861 37.6388 66.4831 38.5497 66.4821 39.4998V46.6664C66.4831 47.6165 66.8609 48.5273 67.5327 49.1991C68.2045 49.8709 69.1153 50.2487 70.0654 50.2497H84.141C84.3036 50.7513 84.3907 51.2744 84.3993 51.8017V59.208C84.3987 59.6831 84.2096 60.1385 83.8736 60.4744C83.5376 60.8102 83.0821 60.9991 82.607 60.9996H77.051C76.6379 58.9765 75.5387 57.1583 73.9394 55.8525C72.34 54.5466 70.3386 53.8334 68.2738 53.8334C66.2091 53.8334 64.2077 54.5466 62.6083 55.8525C61.009 57.1583 59.9098 58.9765 59.4967 60.9996H30.4682C30.0551 58.9765 28.9559 57.1583 27.3566 55.8525C25.7572 54.5466 23.7558 53.8334 21.6911 53.8334C19.6263 53.8334 17.6249 54.5466 16.0256 55.8525C14.4262 57.1583 13.327 58.9765 12.9139 60.9996H10.941C10.466 60.9989 10.0106 60.81 9.67477 60.4741C9.33889 60.1382 9.14992 59.6828 9.1493 59.2079V57.4163C9.62146 57.4117 10.0727 57.221 10.405 56.8855C10.7373 56.55 10.9237 56.0969 10.9237 55.6247C10.9237 55.1525 10.7373 54.6994 10.405 54.3639C10.0727 54.0284 9.62146 53.8376 9.1493 53.8331H3.77436C3.30219 53.8376 2.85092 54.0284 2.51866 54.3639C2.18639 54.6994 2 55.1525 2 55.6247C2 56.0969 2.18639 56.55 2.51866 56.8855C2.85092 57.221 3.30219 57.4117 3.77436 57.4163H5.56606V59.208C5.56762 60.6331 6.1344 61.9993 7.14206 63.007C8.14972 64.0146 9.51596 64.5814 10.941 64.583H12.9138C13.3268 66.606 14.426 68.4242 16.0254 69.73C17.6248 71.0359 19.6261 71.7491 21.6909 71.7491C23.7556 71.7491 25.757 71.0359 27.3564 69.73C28.9558 68.4242 30.055 66.606 30.468 64.583H59.4966C59.9096 66.606 61.0088 68.4242 62.6082 69.73C64.2076 71.0359 66.2089 71.7491 68.2737 71.7491C70.3384 71.7491 72.3398 71.0359 73.9392 69.73C75.5386 68.4242 76.6378 66.606 77.0508 64.583H82.607C84.032 64.5814 85.3983 64.0146 86.4059 63.007C87.4136 61.9993 87.9804 60.6331 87.9819 59.208V51.8017C87.984 50.523 87.7101 49.2589 87.1789 48.0958ZM21.6909 68.1662C20.6278 68.1662 19.5886 67.851 18.7047 67.2604C17.8208 66.6698 17.1319 65.8303 16.7251 64.8482C16.3183 63.866 16.2118 62.7853 16.4192 61.7427C16.6266 60.7 17.1385 59.7423 17.8902 58.9906C18.6419 58.2389 19.5997 57.727 20.6423 57.5196C21.6849 57.3122 22.7657 57.4186 23.7478 57.8255C24.7299 58.2323 25.5694 58.9212 26.16 59.8051C26.7506 60.689 27.0658 61.7282 27.0658 62.7913C27.0643 64.2163 26.4975 65.5825 25.4898 66.5902C24.4822 67.5979 23.1159 68.1646 21.6909 68.1662ZM68.2737 68.1662C67.2106 68.1662 66.1714 67.851 65.2875 67.2604C64.4036 66.6698 63.7147 65.8303 63.3079 64.8482C62.9011 63.866 62.7946 62.7853 63.002 61.7427C63.2094 60.7 63.7213 59.7423 64.473 58.9906C65.2247 58.2389 66.1824 57.727 67.2251 57.5196C68.2677 57.3122 69.3484 57.4186 70.3306 57.8255C71.3127 58.2323 72.1522 58.9212 72.7428 59.8051C73.3334 60.689 73.6486 61.7282 73.6486 62.7913C73.6471 64.2163 73.0803 65.5825 72.0727 66.5901C71.0651 67.5978 69.6989 68.1646 68.2738 68.1662H68.2737ZM70.0654 39.4998H79.3362L82.5937 46.6664H70.0654V39.4998Z" fill="url(#paint0_linear_66_477)"/>
<defs>
<linearGradient id="paint0_linear_66_477" x1="44.991" y1="18" x2="44.991" y2="71.7491" gradientUnits="userSpaceOnUse">
<stop stop-color="#FFB504"/>
<stop offset="1" stop-color="#FF0B43"/>
</linearGradient>
</defs>
</svg>
