<svg width="90" height="90" viewBox="0 0 90 90" fill="none" xmlns="http://www.w3.org/2000/svg">
<path d="M78.4804 46.0248C78.3293 45.7183 78.2508 45.3812 78.2508 45.0394C78.2508 44.6977 78.3293 44.3606 78.4804 44.0541L81.3178 38.2494C82.8976 35.0174 81.6459 31.1653 78.4682 29.4792L72.7608 26.451C72.4585 26.2918 72.1968 26.0652 71.9959 25.7888C71.7951 25.5124 71.6605 25.1935 71.6024 24.8567L70.4862 18.4928C69.8647 14.9495 66.5871 12.5685 63.0258 13.0724L56.6286 13.9773C56.2904 14.0262 55.9455 13.9967 55.6206 13.8911C55.2956 13.7855 54.9993 13.6066 54.7545 13.3682L50.1109 8.87607C47.5253 6.37472 43.4747 6.37457 40.8893 8.87607L36.2455 13.3687C36.0007 13.607 35.7043 13.7858 35.3794 13.8914C35.0544 13.997 34.7096 14.0266 34.3714 13.9778L27.9742 13.0728C24.4117 12.5687 21.1353 14.95 20.5138 18.4932L19.3976 24.8569C19.3395 25.1936 19.2049 25.5125 19.0041 25.789C18.8033 26.0654 18.5416 26.292 18.2393 26.4513L12.532 29.4795C9.35424 31.1654 8.10252 35.0179 9.68232 38.2499L12.5196 44.0544C12.6707 44.3609 12.7492 44.698 12.7492 45.0397C12.7492 45.3815 12.6707 45.7186 12.5196 46.0251L9.68218 51.8296C8.10237 55.0616 9.35409 58.9138 12.5318 60.5998L18.2392 63.6281C18.5415 63.7873 18.8032 64.0138 19.004 64.2903C19.2049 64.5667 19.3395 64.8856 19.3976 65.2223L20.5138 71.5862C21.0796 74.8118 23.8454 77.074 27.0242 77.0737C27.3373 77.0737 27.655 77.0517 27.9743 77.0065L34.3715 76.1016C34.7097 76.0527 35.0546 76.0821 35.3796 76.1877C35.7045 76.2934 36.0009 76.4723 36.2457 76.7107L40.8893 81.2028C42.1823 82.4536 43.8409 83.0789 45.5 83.0788C47.1587 83.0786 48.8183 82.4533 50.1107 81.2028L54.7545 76.7107C55.2555 76.2261 55.9384 76.0047 56.6286 76.1016L63.0258 77.0065C66.5887 77.5105 69.8647 75.1294 70.4862 71.5861L71.6026 65.2224C71.6606 64.8857 71.7952 64.5668 71.996 64.2904C72.1969 64.0139 72.4585 63.7873 72.7608 63.6281L78.4682 60.5998C81.6459 58.9139 82.8976 55.0614 81.3178 51.8295L78.4804 46.0248ZM76.4115 56.7236L70.7042 59.7518C68.8846 60.7175 67.6366 62.4349 67.2807 64.464L66.1645 70.8278C66.0661 71.4023 65.7471 71.9156 65.2755 72.2583C64.804 72.6009 64.2172 72.7457 63.6404 72.6617L57.2432 71.7568C55.203 71.4678 53.1843 72.1244 51.7036 73.5567L47.0599 78.0487C46.6425 78.4556 46.0828 78.6833 45.4999 78.6833C44.9171 78.6833 44.3573 78.4556 43.94 78.0487L39.2964 73.5565C38.045 72.346 36.409 71.69 34.7011 71.69C34.3882 71.69 34.0727 71.712 33.7568 71.7567L27.3596 72.6616C26.7828 72.7453 26.1961 72.6005 25.7246 72.2579C25.2531 71.9153 24.9341 71.4021 24.8355 70.8277L23.7191 64.4637C23.3631 62.4346 22.1153 60.7171 20.2955 59.7517L14.5882 56.7234C14.0722 56.4523 13.6826 55.9903 13.5024 55.436C13.3223 54.8816 13.3659 54.2789 13.624 53.7562L16.4614 47.9516C17.366 46.1007 17.366 43.978 16.4614 42.1272L13.624 36.3225C13.3659 35.7999 13.3223 35.1971 13.5024 34.6428C13.6826 34.0884 14.0722 33.6264 14.5882 33.3553L20.2955 30.3271C22.1151 29.3614 23.3631 27.644 23.719 25.6148L24.8352 19.251C24.9336 18.6765 25.2526 18.1632 25.7242 17.8206C26.1957 17.478 26.7825 17.3332 27.3593 17.4172L33.7565 18.3221C35.7959 18.6108 37.8154 17.9545 39.2961 16.5222L43.9398 12.03C44.3572 11.6232 44.9169 11.3955 45.4998 11.3955C46.0826 11.3955 46.6424 11.6232 47.0597 12.03L51.7033 16.5222C53.184 17.9546 55.2032 18.6108 57.2429 18.3221L63.6401 17.4172C64.2169 17.3333 64.8036 17.4781 65.2752 17.8207C65.7467 18.1633 66.0657 18.6766 66.1642 19.251L67.2804 25.615C67.6364 27.6441 68.8843 29.3617 70.7041 30.3271L76.4114 33.3553C76.9274 33.6264 77.317 34.0884 77.4971 34.6428C77.6773 35.1971 77.6337 35.7999 77.3756 36.3225L74.5381 42.127C73.6335 43.9777 73.6335 46.1007 74.5381 47.9514L77.3756 53.7559C77.6337 54.2786 77.6774 54.8815 77.4973 55.4359C77.3172 55.9903 76.9276 56.4524 76.4115 56.7236Z" fill="url(#paint0_linear_66_481)"/>
<path d="M61.5305 29.0087C60.6738 28.1519 59.2845 28.1519 58.4278 29.0087L29.4693 57.9673C28.6125 58.8241 28.6125 60.2132 29.4693 61.07C29.6728 61.274 29.9146 61.4358 30.1808 61.5461C30.447 61.6564 30.7324 61.713 31.0206 61.7127C31.5819 61.7127 32.1436 61.4985 32.5718 61.07L61.5303 32.1115C62.3874 31.2546 62.3874 29.8656 61.5305 29.0087ZM36.7242 25.2939C32.2885 25.2939 28.6797 28.9027 28.6797 33.3384C28.6797 37.7741 32.2885 41.3829 36.7242 41.3829C41.1599 41.3829 44.7687 37.7741 44.7687 33.3384C44.7687 28.9027 41.1599 25.2939 36.7242 25.2939ZM36.7242 36.9949C34.708 36.9949 33.0677 35.3547 33.0677 33.3383C33.0677 31.3221 34.708 29.6818 36.7242 29.6818C38.7404 29.6818 40.3808 31.3221 40.3808 33.3383C40.3807 35.3547 38.7404 36.9949 36.7242 36.9949ZM54.2756 48.6959C49.8399 48.6959 46.2311 52.3047 46.2311 56.7404C46.2311 61.1761 49.8399 64.7849 54.2756 64.7849C58.7113 64.7849 62.3201 61.1761 62.3201 56.7404C62.3201 52.3047 58.7113 48.6959 54.2756 48.6959ZM54.2756 60.3969C52.2594 60.3969 50.6189 58.7566 50.6189 56.7404C50.6189 54.7242 52.2592 53.0839 54.2756 53.0839C56.2918 53.0839 57.9321 54.7242 57.9321 56.7404C57.9321 58.7566 56.2918 60.3969 54.2756 60.3969Z" fill="url(#paint1_linear_66_481)"/>
<defs>
<linearGradient id="paint0_linear_66_481" x1="45.5" y1="7" x2="45.5" y2="83.0788" gradientUnits="userSpaceOnUse">
<stop stop-color="#FFB604"/>
<stop offset="1" stop-color="#FF0745"/>
</linearGradient>
<linearGradient id="paint1_linear_66_481" x1="45.4999" y1="25.2939" x2="45.4999" y2="64.7849" gradientUnits="userSpaceOnUse">
<stop stop-color="#FFB604"/>
<stop offset="1" stop-color="#FF0745"/>
</linearGradient>
</defs>
</svg>
