<svg width="90" height="90" viewBox="0 0 90 90" fill="none" xmlns="http://www.w3.org/2000/svg">
<path d="M41.8687 32.2985C46.6905 32.2985 50.6133 28.3757 50.6133 23.5539C50.6133 18.7321 46.6905 14.8091 41.8687 14.8091C37.0469 14.8091 33.1241 18.7321 33.1241 23.5539C33.1241 28.3757 37.0469 32.2985 41.8687 32.2985ZM41.8687 17.1961C45.3744 17.1961 48.2264 20.0482 48.2264 23.5539C48.2264 27.0596 45.3744 29.9115 41.8687 29.9115C38.363 29.9115 35.511 27.0596 35.511 23.5539C35.511 20.0482 38.363 17.1961 41.8687 17.1961ZM81.2474 60.6022L76.0345 51.573V26.141C76.0345 22.7002 73.235 19.9008 69.7942 19.9008H55.1098L54.8483 19.8001C54.5703 18.8371 54.1853 17.9084 53.7004 17.0312L54.488 15.258C54.5859 15.0376 54.6147 14.7927 54.5707 14.5555C54.5266 14.3184 54.4117 14.1002 54.2412 13.9297L51.4928 11.1812C51.3222 11.0108 51.104 10.896 50.8669 10.8519C50.6298 10.8079 50.3849 10.8367 50.1644 10.9345L48.3903 11.7223C47.5135 11.2377 46.5852 10.8528 45.6227 10.5749L44.9258 8.76472C44.8392 8.53963 44.6865 8.34606 44.4876 8.20954C44.2888 8.07302 44.0533 7.99997 43.8121 8H39.9254C39.6842 7.99998 39.4487 8.07304 39.2499 8.20955C39.051 8.34607 38.8982 8.53963 38.8116 8.76472L38.1148 10.5749C37.1522 10.8528 36.2238 11.2377 35.3469 11.7223L33.573 10.9345C33.3526 10.8366 33.1077 10.8078 32.8706 10.8518C32.6335 10.8959 32.4153 11.0107 32.2448 11.1812L29.4962 13.9297C29.3257 14.1002 29.2108 14.3184 29.1667 14.5555C29.1226 14.7926 29.1514 15.0376 29.2493 15.258L30.0372 17.0318C29.5524 17.9088 29.1675 18.8373 28.8895 19.7999L28.6275 19.9008H14.2401C10.7993 19.9008 8 22.7002 8 26.141V60.8601C8 64.3009 10.7993 67.1004 14.2401 67.1004H30.5077V72.7313H24.0193C20.9882 72.7313 18.522 74.8093 18.522 77.3634V80.8022C18.522 81.1188 18.6478 81.4223 18.8716 81.6462C19.0954 81.87 19.399 81.9957 19.7155 81.9957H64.3188C64.6353 81.9957 64.9389 81.87 65.1627 81.6462C65.3865 81.4223 65.5123 81.1188 65.5123 80.8022V77.3634C65.5123 74.8093 63.0463 72.7313 60.015 72.7313H53.5266V67.3984C54.5408 68.3732 55.8924 68.928 57.3574 68.928H76.4404C78.4469 68.928 80.244 67.8906 81.2476 66.1526C82.2508 64.415 82.2508 62.34 81.2474 60.6022ZM73.6475 26.141V47.4387L71.8143 44.2636V26.0144C71.8143 24.9704 70.965 24.1211 69.9209 24.1211H57.4226V22.2877H69.7942C71.9189 22.2876 73.6475 24.0162 73.6475 26.141ZM58.6619 50.0169C58.0706 50.3422 57.4067 50.513 56.7319 50.5134C55.0513 50.5134 53.5406 49.4619 52.8833 47.8349C52.7942 47.6144 52.6413 47.4255 52.4441 47.2925C52.2469 47.1595 52.0145 47.0884 51.7767 47.0884H31.9607C31.7229 47.0884 31.4905 47.1594 31.2933 47.2925C31.0961 47.4255 30.9432 47.6144 30.8541 47.8349C30.1968 49.4619 28.6861 50.5134 27.0056 50.5134C26.2104 50.5134 25.433 50.2777 24.7717 49.8362H27.6127C27.8256 49.8362 28.0347 49.7793 28.2181 49.6713C28.4016 49.5633 28.5528 49.4082 28.6561 49.222L30.0571 46.6984C30.1555 46.5212 30.2072 46.3218 30.2072 46.1191C30.2072 45.9164 30.1555 45.7171 30.0571 45.5398L28.6561 43.0164C28.5528 42.8302 28.4016 42.6751 28.2181 42.5671C28.0347 42.4591 27.8256 42.4022 27.6127 42.4022H24.772C25.4269 41.967 26.1965 41.725 27.0057 41.725C28.6863 41.725 30.1969 42.7765 30.8542 44.4035C30.9433 44.624 31.0963 44.8129 31.2935 44.9459C31.4906 45.0789 31.723 45.15 31.9609 45.15H51.7768C52.0147 45.15 52.2471 45.079 52.4443 44.946C52.6415 44.8129 52.7944 44.6241 52.8835 44.4035C53.5408 42.7765 55.0513 41.725 56.7322 41.7252C57.5413 41.7252 58.3108 41.9669 58.9659 42.4022H56.1247C55.9118 42.4022 55.7028 42.4591 55.5193 42.5671C55.3358 42.6751 55.1846 42.8302 55.0813 43.0164L53.6803 45.5398C53.5819 45.7171 53.5302 45.9164 53.5302 46.1191C53.5302 46.3218 53.5819 46.5212 53.6803 46.6984L55.0813 49.222C55.1846 49.4082 55.3358 49.5633 55.5193 49.6713C55.7028 49.7793 55.9118 49.8362 56.1247 49.8362H58.7663L58.6619 50.0169ZM60.1443 47.4493H56.8272L56.0889 46.1191L56.8272 44.7892H61.5264C61.5805 44.7892 61.6339 44.785 61.6867 44.7778L60.1443 47.4493ZM62.6687 43.2569C62.6506 43.1937 62.6273 43.132 62.5992 43.0726C61.4761 40.7691 59.2277 39.3381 56.7322 39.3382H56.7317C54.3443 39.3382 52.1822 40.6588 51.0245 42.7631H32.7131C31.5554 40.6587 29.3931 39.3381 27.0054 39.3381C24.5097 39.3382 22.2613 40.7694 21.1384 43.0726C21.0497 43.2546 21.0087 43.4561 21.0193 43.6582C21.03 43.8604 21.0918 44.0565 21.1991 44.2281C21.3063 44.3998 21.4555 44.5413 21.6325 44.6395C21.8096 44.7376 22.0086 44.7891 22.2111 44.7892H26.9102L27.6486 46.1191L26.9102 47.4493H22.2111C22.0086 47.4493 21.8096 47.5008 21.6325 47.5989C21.4555 47.6971 21.3063 47.8386 21.1991 48.0103C21.0918 48.1819 21.03 48.3781 21.0193 48.5802C21.0087 48.7823 21.0497 48.9838 21.1384 49.1658C22.2615 51.4694 24.5097 52.9003 27.0056 52.9003C29.3931 52.9003 31.5554 51.5798 32.7131 49.4753H51.0243C52.182 51.5798 54.3443 52.9003 56.7319 52.9003C56.8224 52.9003 56.9124 52.8945 57.0026 52.8906L55.085 56.2121H14.6071V26.508H26.8783C26.9419 26.5477 27.0081 26.5837 27.0799 26.6111L28.8893 27.3075C29.1673 28.2704 29.5523 29.1991 30.0372 30.0762L29.2495 31.8496C29.1516 32.07 29.1228 32.3149 29.1668 32.5521C29.2109 32.7892 29.3258 33.0074 29.4964 33.1779L32.2449 35.9264C32.4155 36.0968 32.6337 36.2117 32.8708 36.2557C33.1079 36.2997 33.3527 36.271 33.5731 36.1731L35.3472 35.3853C36.224 35.87 37.1524 36.2548 38.1149 36.5327L38.8118 38.3429C38.8984 38.568 39.0512 38.7615 39.25 38.8981C39.4488 39.0346 39.6844 39.1076 39.9256 39.1076H43.8124C44.0536 39.1076 44.2892 39.0345 44.488 38.898C44.6868 38.7614 44.8396 38.5678 44.9263 38.3427L45.6227 36.5333C46.5856 36.2554 47.5144 35.8704 48.3915 35.3856L50.1647 36.1731C50.3852 36.271 50.6301 36.2998 50.8672 36.2557C51.1043 36.2116 51.3225 36.0968 51.4931 35.9262L54.2415 33.1776C54.412 33.0071 54.5269 32.7889 54.5709 32.5518C54.615 32.3147 54.5862 32.0698 54.4883 31.8494L53.7006 30.0755C54.1852 29.1986 54.57 28.2702 54.8478 27.3077L56.658 26.611C56.7282 26.5831 56.7956 26.5486 56.8593 26.508H69.4276V41.9021C68.6625 41.5123 67.8026 41.3005 66.8993 41.3005C65.2318 41.3005 63.7113 42.0183 62.6687 43.2569ZM30.3167 21.8083C30.4976 21.7387 30.6589 21.626 30.7864 21.4801C30.914 21.3341 31.0041 21.1593 31.0489 20.9707C31.3212 19.8263 31.7746 18.7328 32.392 17.7315C32.4937 17.5664 32.5537 17.379 32.5667 17.1856C32.5797 16.9921 32.5453 16.7984 32.4666 16.6212L31.7635 15.0382L33.3531 13.4488L34.9361 14.1519C35.1133 14.2306 35.3069 14.2649 35.5003 14.2519C35.6937 14.239 35.8811 14.1791 36.0462 14.0775C37.0475 13.4602 38.1411 13.0068 39.2854 12.7344C39.474 12.6896 39.6488 12.5995 39.7948 12.4719C39.9407 12.3443 40.0533 12.1831 40.1229 12.0022L40.7448 10.387H42.9927L43.6143 12.0019C43.6839 12.1828 43.7966 12.344 43.9425 12.4715C44.0884 12.5991 44.2631 12.6892 44.4517 12.7341C45.5961 13.0064 46.6896 13.4598 47.691 14.0772C47.856 14.1788 48.0434 14.2387 48.2368 14.2516C48.4302 14.2646 48.6239 14.2303 48.801 14.1516L50.3842 13.4485L51.9736 15.0379L51.2708 16.6204C51.1921 16.7976 51.1577 16.9913 51.1707 17.1848C51.1837 17.3782 51.2437 17.5656 51.3454 17.7307C51.963 18.7322 52.4164 19.8259 52.6885 20.9706C52.7334 21.1592 52.8235 21.334 52.9511 21.4799C53.0787 21.6258 53.2399 21.7385 53.4209 21.8081L55.0353 22.4296V24.6774L53.4204 25.299C53.2395 25.3686 53.0782 25.4813 52.9506 25.6272C52.823 25.7731 52.7329 25.948 52.6881 26.1366C52.4157 27.2809 51.9624 28.3745 51.3451 29.3758C51.2435 29.5409 51.1836 29.7282 51.1706 29.9217C51.1577 30.1151 51.192 30.3087 51.2706 30.4859L51.9736 32.0689L50.3842 33.6585L48.8019 32.9557C48.6248 32.8769 48.431 32.8425 48.2376 32.8555C48.0441 32.8685 47.8567 32.9285 47.6917 33.0302C46.69 33.6477 45.5961 34.1011 44.4514 34.3735C44.2628 34.4184 44.088 34.5085 43.9421 34.6361C43.7962 34.7637 43.6836 34.925 43.614 35.1059L42.9927 36.72H40.7448L40.1231 35.1051C40.0535 34.9242 39.9408 34.763 39.7949 34.6354C39.649 34.5078 39.4742 34.4177 39.2856 34.3729C38.1412 34.1006 37.0477 33.6472 36.0465 33.0298C35.8814 32.9281 35.6941 32.8682 35.5006 32.8552C35.3072 32.8422 35.1135 32.8766 34.9364 32.9554L33.3532 33.6585L31.7637 32.069L32.4666 30.4866C32.5453 30.3095 32.5797 30.1157 32.5667 29.9223C32.5537 29.7288 32.4937 29.5415 32.392 29.3764C31.7746 28.3749 31.3211 27.2811 31.0489 26.1364C31.004 25.9478 30.9139 25.773 30.7863 25.6271C30.6586 25.4811 30.4974 25.3685 30.3164 25.2989L28.7021 24.6775V22.4296L30.3167 21.8083ZM10.387 60.86V26.141C10.387 24.0163 12.1154 22.2877 14.2401 22.2877H26.3148V24.1211H14.1134C13.0695 24.1211 12.2201 24.9704 12.2201 26.0144V57.4056C12.2201 57.7221 12.3459 58.0257 12.5697 58.2495C12.7935 58.4733 13.0971 58.5991 13.4136 58.5991H53.707L52.5505 60.6022C51.8128 61.8796 51.6194 63.3393 51.9664 64.7134H14.2401C12.1154 64.7132 10.387 62.9846 10.387 60.86ZM63.1255 77.3634V79.6088H20.909V77.3634C20.909 76.1465 22.3334 75.1183 24.0193 75.1183H60.0151C61.7011 75.1183 63.1255 76.1465 63.1255 77.3634ZM32.8946 72.7313V67.1002H51.1398V72.7313H32.8946ZM79.1805 64.9594C78.6085 65.95 77.5842 66.5414 76.4405 66.5414H57.3574C56.2137 66.5414 55.1894 65.95 54.6175 64.9594C54.0456 63.9688 54.0456 62.7862 54.6175 61.7956L64.1592 45.2694C64.731 44.2788 65.7552 43.6874 66.8988 43.6874C68.0425 43.6874 69.0668 44.2788 69.6387 45.2694L79.1802 61.7955C79.7521 62.7861 79.7521 63.969 79.1805 64.9594ZM66.4902 60.2371C67.0953 60.2392 67.6774 60.0054 68.1129 59.5854C68.5484 59.1653 68.8031 58.592 68.8229 57.9872L69.1112 50.0027C69.1346 49.3541 68.9089 48.7643 68.4587 48.298C68.0084 47.831 67.4275 47.5841 66.7786 47.5841H66.202C65.5529 47.5841 64.9719 47.831 64.5218 48.2977C64.0716 48.7645 63.846 49.3538 63.8692 50.0026L64.1575 57.9872C64.1773 58.592 64.432 59.1652 64.8675 59.5853C65.303 60.0054 65.8851 60.2392 66.4902 60.2371ZM66.7238 49.9712L66.4903 56.4394L66.257 49.9711L66.7238 49.9712ZM66.4902 60.4588C65.0264 60.4588 63.8353 61.6496 63.8353 63.1135C63.8353 64.5775 65.0262 65.7683 66.4902 65.7683C67.9541 65.7683 69.1449 64.5775 69.1449 63.1135C69.1449 61.6496 67.9541 60.4588 66.4902 60.4588ZM66.4902 63.3813C66.3425 63.3813 66.2223 63.2612 66.2223 63.1135C66.2223 62.9658 66.3425 62.8457 66.4902 62.8457C66.6377 62.8457 66.758 62.9658 66.758 63.1135C66.758 63.2612 66.6379 63.3813 66.4902 63.3813Z" fill="url(#paint0_linear_66_485)"/>
<defs>
<linearGradient id="paint0_linear_66_485" x1="45" y1="8" x2="45" y2="81.9957" gradientUnits="userSpaceOnUse">
<stop stop-color="#FFB106"/>
<stop offset="1" stop-color="#FF1041"/>
</linearGradient>
</defs>
</svg>
