<svg width="24" height="36" viewBox="0 0 24 36" fill="none" xmlns="http://www.w3.org/2000/svg">
<path fill-rule="evenodd" clip-rule="evenodd" d="M14.8412 23.6617C20.0973 22.3856 24 17.6486 24 12C24 5.37258 18.6274 0 12 0C5.37258 0 0 5.37258 0 12C0 17.6486 3.90273 22.3856 9.1588 23.6617L12 35.5L14.8412 23.6617Z" fill="#183E98"/>
<path d="M13.3334 9.33331H14C14.1769 9.33331 14.3464 9.26308 14.4714 9.13805C14.5965 9.01303 14.6667 8.84346 14.6667 8.66665C14.6667 8.48984 14.5965 8.32027 14.4714 8.19524C14.3464 8.07022 14.1769 7.99998 14 7.99998H13.3334C13.1566 7.99998 12.987 8.07022 12.862 8.19524C12.7369 8.32027 12.6667 8.48984 12.6667 8.66665C12.6667 8.84346 12.7369 9.01303 12.862 9.13805C12.987 9.26308 13.1566 9.33331 13.3334 9.33331ZM13.3334 12H14C14.1769 12 14.3464 11.9297 14.4714 11.8047C14.5965 11.6797 14.6667 11.5101 14.6667 11.3333C14.6667 11.1565 14.5965 10.9869 14.4714 10.8619C14.3464 10.7369 14.1769 10.6666 14 10.6666H13.3334C13.1566 10.6666 12.987 10.7369 12.862 10.8619C12.7369 10.9869 12.6667 11.1565 12.6667 11.3333C12.6667 11.5101 12.7369 11.6797 12.862 11.8047C12.987 11.9297 13.1566 12 13.3334 12ZM10 9.33331H10.6667C10.8435 9.33331 11.0131 9.26308 11.1381 9.13805C11.2631 9.01303 11.3334 8.84346 11.3334 8.66665C11.3334 8.48984 11.2631 8.32027 11.1381 8.19524C11.0131 8.07022 10.8435 7.99998 10.6667 7.99998H10C9.82323 7.99998 9.65366 8.07022 9.52864 8.19524C9.40361 8.32027 9.33337 8.48984 9.33337 8.66665C9.33337 8.84346 9.40361 9.01303 9.52864 9.13805C9.65366 9.26308 9.82323 9.33331 10 9.33331ZM10 12H10.6667C10.8435 12 11.0131 11.9297 11.1381 11.8047C11.2631 11.6797 11.3334 11.5101 11.3334 11.3333C11.3334 11.1565 11.2631 10.9869 11.1381 10.8619C11.0131 10.7369 10.8435 10.6666 10.6667 10.6666H10C9.82323 10.6666 9.65366 10.7369 9.52864 10.8619C9.40361 10.9869 9.33337 11.1565 9.33337 11.3333C9.33337 11.5101 9.40361 11.6797 9.52864 11.8047C9.65366 11.9297 9.82323 12 10 12ZM18 17.3333H17.3334V5.99998C17.3334 5.82317 17.2631 5.6536 17.1381 5.52858C17.0131 5.40355 16.8435 5.33331 16.6667 5.33331H7.33337C7.15656 5.33331 6.98699 5.40355 6.86197 5.52858C6.73695 5.6536 6.66671 5.82317 6.66671 5.99998V17.3333H6.00004C5.82323 17.3333 5.65366 17.4036 5.52864 17.5286C5.40361 17.6536 5.33337 17.8232 5.33337 18C5.33337 18.1768 5.40361 18.3464 5.52864 18.4714C5.65366 18.5964 5.82323 18.6666 6.00004 18.6666H18C18.1769 18.6666 18.3464 18.5964 18.4714 18.4714C18.5965 18.3464 18.6667 18.1768 18.6667 18C18.6667 17.8232 18.5965 17.6536 18.4714 17.5286C18.3464 17.4036 18.1769 17.3333 18 17.3333ZM12.6667 17.3333H11.3334V14.6666H12.6667V17.3333ZM16 17.3333H14V14C14 13.8232 13.9298 13.6536 13.8048 13.5286C13.6798 13.4036 13.5102 13.3333 13.3334 13.3333H10.6667C10.4899 13.3333 10.3203 13.4036 10.1953 13.5286C10.0703 13.6536 10 13.8232 10 14V17.3333H8.00004V6.66665H16V17.3333Z" fill="white"/>
</svg>
