<svg width="30" height="30" viewBox="0 0 30 30" fill="none" xmlns="http://www.w3.org/2000/svg">
<path d="M21.75 0H8.25C6.06196 0 3.96354 0.869193 2.41637 2.41637C0.869193 3.96354 0 6.06196 0 8.25V21.75C0 23.938 0.869193 26.0365 2.41637 27.5836C3.96354 29.1308 6.06196 30 8.25 30H21.75C23.938 30 26.0365 29.1308 27.5836 27.5836C29.1308 26.0365 30 23.938 30 21.75V8.25C30 6.06196 29.1308 3.96354 27.5836 2.41637C26.0365 0.869193 23.938 0 21.75 0ZM27.375 20.565C27.375 22.3711 26.6575 24.1033 25.3804 25.3804C24.1033 26.6575 22.3711 27.375 20.565 27.375H9.435C7.62888 27.375 5.89672 26.6575 4.6196 25.3804C3.34248 24.1033 2.625 22.3711 2.625 20.565V9.435C2.625 7.62888 3.34248 5.89672 4.6196 4.6196C5.89672 3.34248 7.62888 2.625 9.435 2.625H20.565C22.3711 2.625 24.1033 3.34248 25.3804 4.6196C26.6575 5.89672 27.375 7.62888 27.375 9.435V20.565Z" fill="#FFBF00"/>
<path d="M20.4714 9.58518L20.4001 9.51393L20.3401 9.45393C18.9222 8.04095 17.0019 7.24798 15.0001 7.24893C13.9893 7.2558 12.9897 7.46177 12.0585 7.85507C11.1273 8.24838 10.2827 8.82131 9.57293 9.54113C8.86321 10.261 8.30227 11.1136 7.92216 12.0503C7.54205 12.9869 7.35022 13.9893 7.35763 15.0002C7.3561 17.0516 8.16474 19.0207 9.60763 20.4789C10.3144 21.1943 11.1566 21.7617 12.085 22.148C13.0134 22.5343 14.0095 22.7318 15.0151 22.7289C16.5235 22.6973 17.9901 22.2274 19.236 21.3766C20.482 20.5258 21.4534 19.3308 22.0318 17.9373C22.6103 16.5439 22.7707 15.0123 22.4937 13.5292C22.2166 12.0461 21.5139 10.6758 20.4714 9.58518ZM15.0001 20.0852C13.9915 20.0993 13.0014 19.8131 12.1559 19.2631C11.3104 18.713 10.6475 17.9238 10.2517 16.996C9.85589 16.0682 9.74497 15.0436 9.93305 14.0525C10.1211 13.0615 10.5997 12.1488 11.308 11.4305C12.0162 10.7122 12.9221 10.2208 13.9103 10.0187C14.8986 9.81668 15.9247 9.91313 16.858 10.2958C17.7913 10.6785 18.5897 11.3301 19.1517 12.1678C19.7137 13.0055 20.0138 13.9914 20.0139 15.0002C20.0188 15.6633 19.893 16.321 19.6437 16.9355C19.3944 17.55 19.0264 18.1094 18.5607 18.5816C18.0951 19.0539 17.541 19.4297 16.93 19.6877C16.3191 19.9457 15.6633 20.0808 15.0001 20.0852ZM24.9114 6.89268C24.9134 7.13331 24.8679 7.37197 24.7775 7.595C24.6871 7.81803 24.5536 8.02104 24.3847 8.19241C24.2157 8.36379 24.0147 8.50016 23.793 8.59372C23.5713 8.68729 23.3333 8.7362 23.0926 8.73768C22.854 8.73756 22.6178 8.69011 22.3976 8.59806C22.1775 8.50601 21.9778 8.3712 21.8101 8.20143C21.5561 7.94367 21.3833 7.61701 21.3131 7.26196C21.243 6.9069 21.2786 6.53907 21.4156 6.20408C21.5525 5.86908 21.7848 5.58164 22.0836 5.37741C22.3824 5.17318 22.7345 5.06114 23.0964 5.05518C23.5199 5.05509 23.93 5.20374 24.2551 5.47518L24.2926 5.51268C24.3531 5.56191 24.4084 5.61719 24.4576 5.67768L24.4989 5.72268C24.7673 6.05337 24.913 6.46675 24.9114 6.89268Z" fill="#FFBF00"/>
</svg>
