<svg width="35" height="35" viewBox="0 0 35 35" fill="none" xmlns="http://www.w3.org/2000/svg">
<path d="M17.3768 27.0531C15.5876 27.0531 13.8268 26.5905 12.2865 25.7161C12.1632 25.6464 12.0269 25.6012 11.8855 25.5832C11.7441 25.5652 11.6004 25.5746 11.4628 25.611L8.11362 26.5038L9.28063 24.0073C9.43937 23.668 9.39819 23.2721 9.17422 22.9695C7.92569 21.2898 7.26667 19.3051 7.26667 17.232C7.26667 11.8163 11.8017 7.41095 17.3768 7.41095C22.9518 7.41095 27.4869 11.8163 27.4869 17.232C27.4869 22.6477 22.9518 27.0531 17.3768 27.0531ZM17.3768 5.33203C10.6218 5.33203 5.12744 10.6702 5.12744 17.232C5.12744 19.5402 5.80105 21.7566 7.0839 23.6805L5.22269 27.6624C5.05107 28.0301 5.11371 28.4602 5.3823 28.7669C5.5891 29.0012 5.88857 29.132 6.19663 29.132C6.88654 29.132 10.6493 27.9834 11.6069 27.7275C13.382 28.6495 15.3638 29.1319 17.3768 29.132C24.1308 29.132 29.627 23.793 29.627 17.232C29.627 10.6702 24.1308 5.33286 17.3768 5.33203Z" fill="white"/>
<path d="M20.3013 18.6234C19.8379 18.8076 19.5419 19.5128 19.2415 19.8729C19.0871 20.0571 18.9034 20.0863 18.6666 19.9938C16.9264 19.3203 15.592 18.1916 14.6318 16.6362C14.4688 16.3953 14.498 16.2044 14.6945 15.9802C14.9845 15.6484 15.3492 15.2716 15.4273 14.824C15.6015 13.8354 14.2706 10.767 12.5123 12.1574C7.45384 16.1619 20.9508 26.7824 23.387 21.0383C24.076 19.4095 21.0701 18.3175 20.3013 18.6234Z" fill="white"/>
</svg>
