<svg width="35" height="35" viewBox="0 0 35 35" fill="none" xmlns="http://www.w3.org/2000/svg">
<path d="M21.7175 7.70007H12.5825C11.1019 7.70007 9.682 8.28823 8.63508 9.33515C7.58815 10.3821 7 11.802 7 13.2826V22.4176C7 23.8981 7.58815 25.3181 8.63508 26.365C9.682 27.4119 11.1019 28.0001 12.5825 28.0001H21.7175C23.1981 28.0001 24.618 27.4119 25.6649 26.365C26.7118 25.3181 27.3 23.8981 27.3 22.4176V13.2826C27.3 11.802 26.7118 10.3821 25.6649 9.33515C24.618 8.28823 23.1981 7.70007 21.7175 7.70007ZM25.5238 21.6157C25.5238 22.8379 25.0383 24.01 24.1741 24.8741C23.3099 25.7383 22.1378 26.2238 20.9157 26.2238H13.3844C12.1622 26.2238 10.9901 25.7383 10.1259 24.8741C9.26174 24.01 8.77625 22.8379 8.77625 21.6157V14.0844C8.77625 12.8623 9.26174 11.6902 10.1259 10.826C10.9901 9.96182 12.1622 9.47632 13.3844 9.47632H20.9157C22.1378 9.47632 23.3099 9.96182 24.1741 10.826C25.0383 11.6902 25.5238 12.8623 25.5238 14.0844V21.6157Z" fill="white"/>
<path d="M20.8523 14.186L20.8041 14.1378L20.7635 14.0972C19.804 13.1411 18.5046 12.6045 17.1501 12.6052C16.4661 12.6098 15.7897 12.7492 15.1596 13.0153C14.5294 13.2815 13.9579 13.6691 13.4777 14.1562C12.9974 14.6433 12.6179 15.2202 12.3607 15.8541C12.1034 16.4879 11.9736 17.1662 11.9787 17.8502C11.9776 19.2383 12.5248 20.5707 13.5012 21.5575C13.9794 22.0415 14.5493 22.4255 15.1775 22.6869C15.8058 22.9483 16.4798 23.0819 17.1602 23.08C18.1809 23.0586 19.1733 22.7406 20.0164 22.1649C20.8595 21.5892 21.5168 20.7805 21.9082 19.8377C22.2996 18.8948 22.4082 17.8584 22.2207 16.8548C22.0332 15.8513 21.5577 14.924 20.8523 14.186ZM17.1501 21.291C16.4676 21.3006 15.7976 21.1069 15.2255 20.7347C14.6533 20.3625 14.2048 19.8285 13.937 19.2007C13.6691 18.5729 13.5941 17.8795 13.7214 17.2089C13.8486 16.5383 14.1725 15.9207 14.6517 15.4347C15.131 14.9486 15.7439 14.6161 16.4127 14.4794C17.0814 14.3427 17.7757 14.4079 18.4072 14.6669C19.0388 14.9258 19.5791 15.3668 19.9593 15.9336C20.3396 16.5005 20.5427 17.1676 20.5427 17.8502C20.5461 18.2989 20.4609 18.7439 20.2922 19.1597C20.1235 19.5756 19.8745 19.9541 19.5594 20.2736C19.2444 20.5932 18.8694 20.8475 18.456 21.0221C18.0426 21.1966 17.5988 21.288 17.1501 21.291ZM23.8567 12.3641C23.858 12.5269 23.8272 12.6884 23.7661 12.8393C23.7049 12.9903 23.6146 13.1276 23.5003 13.2436C23.386 13.3596 23.2499 13.4518 23.0999 13.5151C22.9499 13.5785 22.7888 13.6116 22.626 13.6126C22.4645 13.6125 22.3047 13.5804 22.1557 13.5181C22.0068 13.4558 21.8716 13.3646 21.7582 13.2497C21.5863 13.0753 21.4693 12.8542 21.4219 12.614C21.3744 12.3737 21.3985 12.1248 21.4912 11.8981C21.5839 11.6715 21.741 11.477 21.9432 11.3388C22.1454 11.2006 22.3837 11.1248 22.6285 11.1207C22.9151 11.1207 23.1926 11.2213 23.4126 11.4049L23.438 11.4303C23.4789 11.4636 23.5163 11.501 23.5497 11.542L23.5776 11.5724C23.7592 11.7962 23.8578 12.0759 23.8567 12.3641Z" fill="white"/>
</svg>
