<svg width="35" height="35" viewBox="0 0 35 35" fill="none" xmlns="http://www.w3.org/2000/svg">
<path d="M17.669 26.5998C21.7196 26.5998 20.2753 24.0355 20.588 23.2982C20.5833 22.7475 20.5787 22.2178 20.5973 21.8958C20.854 21.9682 21.4595 22.275 22.7101 23.4906C24.6409 25.439 25.1344 26.5998 26.6943 26.5998H29.5654C30.4754 26.5998 30.949 26.223 31.1859 25.9068C31.4145 25.6011 31.6385 25.0645 31.3935 24.2291C30.753 22.2178 27.0174 18.7447 26.7853 18.3784C26.8229 18.3089 26.8629 18.2408 26.9054 18.1742H26.9031C27.6404 17.2001 30.4544 12.9838 30.8685 11.2968C30.87 11.2939 30.8708 11.2907 30.8709 11.2875C31.0949 10.5175 30.8895 10.0181 30.6772 9.7358C30.3575 9.31347 29.8489 9.09998 29.1617 9.09998H26.2906C25.3293 9.09998 24.6001 9.58414 24.2314 10.4673C23.6143 12.0364 21.8806 15.2634 20.581 16.4056C20.552 15.1484 20.5547 13.8908 20.5892 12.6338C20.6312 10.843 20.7665 9.09998 18.908 9.09998H14.3954C13.2311 9.09998 12.1169 10.3716 13.3232 11.8813C14.3779 13.2043 13.7024 13.9416 13.9299 17.6119C13.0432 16.6611 11.4659 14.0933 10.3506 10.8115C10.0379 9.92363 9.56427 9.10114 8.23078 9.10114H5.35965C4.19533 9.10114 3.5 9.7358 3.5 10.7986C3.5 13.1856 8.78378 26.5998 17.669 26.5998ZM8.23078 10.8511C8.48395 10.8511 8.50961 10.8511 8.69744 11.3843C9.8396 14.7477 12.4016 19.7247 14.2729 19.7247C15.6787 19.7247 15.6787 18.2839 15.6787 17.7414L15.6775 13.4224C15.6005 11.9933 15.0802 11.2816 14.7384 10.85L18.831 10.8546C18.8333 10.8745 18.8077 15.6321 18.8427 16.7847C18.8427 18.4215 20.1423 19.3595 22.1711 17.3062C24.3119 14.8901 25.7924 11.2781 25.8519 11.1311C25.9394 10.9211 26.0153 10.85 26.2906 10.85H29.1734L29.1711 10.8605C28.9086 12.0854 26.3174 15.9891 25.4506 17.2012L25.4109 17.2596C25.0294 17.8825 24.7191 18.5709 25.4634 19.5392C25.5311 19.6209 25.7084 19.8122 25.9651 20.0782C26.7631 20.9018 29.5001 23.7181 29.7427 24.8381C29.5817 24.8638 29.4067 24.8451 26.6943 24.851C26.1168 24.851 25.6653 23.9876 23.9421 22.2493C22.3928 20.742 21.3871 20.126 20.4713 20.126C18.6933 20.126 18.8228 21.5692 18.8392 23.3145C18.845 25.2068 18.8333 24.6083 18.8462 24.7273C18.7423 24.7681 18.4448 24.8498 17.669 24.8498C10.2666 24.8498 5.44598 13.1004 5.26048 10.8546C5.32465 10.8488 6.2078 10.8523 8.23078 10.8511Z" fill="white"/>
</svg>
