<svg width="35" height="35" viewBox="0 0 35 35" fill="none" xmlns="http://www.w3.org/2000/svg">
<path d="M29.0248 7.56924C28.7258 7.20211 28.277 6.99988 27.7609 6.99988C27.4825 6.99988 27.1875 7.05816 26.8842 7.17306L6.14198 15.032C5.0391 15.45 4.89066 16.0791 4.90033 16.4169C4.90994 16.753 5.09231 17.3681 6.20241 17.7232L10.6013 19.3352L12.9197 24.642C13.1527 25.376 13.6397 25.8909 14.2612 26.0579C14.4037 26.0962 14.5506 26.1155 14.6981 26.1154C15.2029 26.1154 15.7197 25.8931 16.166 25.4739L18.0867 23.6693L22.7733 26.895C23.1953 27.2069 23.6546 27.3717 24.1024 27.3716C25.0113 27.3716 25.7362 26.7062 25.9492 25.6765L29.3416 9.26937C29.481 8.59507 29.3685 7.9913 29.0248 7.56924ZM12.0592 19.0861L18.0452 15.8761L13.8733 19.7029C13.8003 19.7701 13.742 19.8518 13.7021 19.9427C13.6623 20.0336 13.6418 20.1318 13.6418 20.2311C13.6415 20.2385 13.6406 20.2456 13.6406 20.253L13.6262 22.673L12.0592 19.0861ZM15.1831 24.4275C15.1413 24.4669 15.0971 24.5037 15.0506 24.5375L15.0682 21.5916L16.8766 22.8364L15.1831 24.4275ZM27.9357 8.97866L24.5434 25.3857C24.5092 25.5512 24.3977 25.936 24.1023 25.936C23.9643 25.936 23.7932 25.865 23.6204 25.736C23.613 25.7305 23.6055 25.7251 23.5979 25.7199L18.4312 22.1636L18.4291 22.1622L15.508 20.1515L23.2246 13.0733C23.3534 12.9551 23.4347 12.7939 23.4531 12.62C23.4716 12.4461 23.4259 12.2714 23.3247 12.1288C23.2234 11.9862 23.0737 11.8855 22.9034 11.8455C22.7332 11.8055 22.5542 11.8291 22.4001 11.9117L11.0807 17.9819L6.68166 16.3699C6.67845 16.3687 6.67523 16.3675 6.672 16.3664L27.3929 8.51554C27.5675 8.44936 27.6894 8.43548 27.7609 8.43548C27.7964 8.43548 27.882 8.4394 27.9116 8.47577C27.9495 8.52233 27.9973 8.68068 27.9357 8.97866Z" fill="white"/>
</svg>
