<svg width="30" height="30" viewBox="0 0 30 30" fill="none" xmlns="http://www.w3.org/2000/svg">
<path d="M14.9998 27.3795C12.809 27.3795 10.6529 26.7964 8.76684 25.6942C8.61587 25.6064 8.44895 25.5494 8.27578 25.5267C8.10262 25.504 7.92666 25.5159 7.75814 25.5618L3.65714 26.6871L5.08613 23.5402C5.28052 23.1126 5.23008 22.6135 4.95584 22.2321C3.42703 20.1149 2.62007 17.6131 2.62007 15C2.62007 8.17351 8.17318 2.62048 14.9998 2.62048C21.8264 2.62048 27.3795 8.17351 27.3795 15C27.3795 21.8265 21.8264 27.3795 14.9998 27.3795ZM14.9998 0C6.72842 0 0.000597147 6.72878 0.000597147 15C0.000597147 17.9094 0.825421 20.7033 2.39626 23.1283L0.117228 28.1476C-0.0929178 28.611 -0.0162144 29.1531 0.312664 29.5398C0.56589 29.835 0.932595 30 1.30981 30C2.15459 30 6.76205 28.5521 7.93466 28.2295C10.1083 29.3917 12.535 29.9999 14.9998 30C23.2701 30 30 23.2702 30 15C30 6.72878 23.2701 0.00105071 14.9998 0Z" fill="#FFBF00"/>
<path d="M18.5812 16.754C18.0138 16.9862 17.6513 17.8751 17.2835 18.329C17.0944 18.5612 16.8695 18.598 16.5795 18.4813C14.4487 17.6324 12.8148 16.2097 11.639 14.2491C11.4394 13.9454 11.4751 13.7048 11.7157 13.4222C12.0709 13.004 12.5174 12.529 12.613 11.9648C12.8263 10.7187 11.1966 6.85098 9.0437 8.60357C2.84965 13.6512 19.3766 27.0384 22.3596 19.7979C23.2033 17.7448 19.5226 16.3684 18.5812 16.754Z" fill="#FFBF00"/>
</svg>
