<svg width="35" height="30" viewBox="0 0 35 30" fill="none" xmlns="http://www.w3.org/2000/svg">
<g clip-path="url(#clip0_142_2091)">
<path d="M17.5 30C3.09167 30 0 28.7077 0 15C0 1.29231 3.09167 0 17.5 0C31.9083 0 35 1.29231 35 15C35 28.7077 31.9083 30 17.5 30ZM17.5 2.30769C3.47557 2.30769 2.1875 3.37538 2.1875 15C2.1875 26.6246 3.47557 27.6923 17.5 27.6923C31.5244 27.6923 32.8125 26.6246 32.8125 15C32.8125 3.37538 31.5244 2.30769 17.5 2.30769ZM14.2188 23.0769C14.075 23.0772 13.9327 23.0475 13.7999 22.9896C13.6671 22.9317 13.5464 22.8467 13.4448 22.7395C13.3432 22.6323 13.2626 22.505 13.2078 22.3649C13.1529 22.2248 13.1248 22.0747 13.125 21.9231V8.07692C13.125 7.65154 13.347 7.26038 13.7029 7.05923C13.8773 6.96054 14.0739 6.91374 14.2717 6.92383C14.4694 6.93392 14.6608 7.00054 14.8254 7.11654L24.6692 14.0396C24.8188 14.1452 24.9415 14.288 25.0263 14.4555C25.1111 14.623 25.1555 14.8099 25.1555 14.9998C25.1555 15.1897 25.1111 15.3767 25.0263 15.5441C24.9415 15.7116 24.8188 15.8545 24.6692 15.96L14.8254 22.8831C14.6457 23.0094 14.4347 23.0768 14.2188 23.0769ZM15.3125 10.2331V19.7669L22.0908 15L15.3125 10.2331Z" fill="#FFBF00"/>
</g>
<defs>
<clipPath id="clip0_142_2091">
<rect width="35" height="30" fill="white"/>
</clipPath>
</defs>
</svg>
