<svg width="90" height="90" viewBox="0 0 90 90" fill="none" xmlns="http://www.w3.org/2000/svg">
<path d="M31.6364 38.727C23.0455 38.727 15.9546 31.6361 15.9546 23.0452V17.0452C15.9546 16.227 16.5 15.6816 17.3182 15.6816C18.1364 15.6816 18.6819 16.227 18.6819 17.0452V23.0452C18.6819 30.1361 24.5455 35.9997 31.6364 35.9997C38.7273 35.9997 44.591 30.1361 44.591 23.0452L44.4546 15.1361C44.4546 14.3179 45 13.7725 45.8182 13.7725C46.6364 13.7725 47.1819 14.3179 47.1819 15.1361L47.3182 23.0452C47.3182 31.6361 40.2273 38.727 31.6364 38.727Z" fill="url(#paint0_linear_247_760)"/>
<path d="M56.7273 56.181C56.3182 56.181 55.9091 56.0447 55.6364 55.6356C54.1364 53.5901 52.091 51.8174 49.6364 50.7265C49.3637 50.5901 49.091 50.5901 48.8182 50.4537C48.4091 50.3174 47.8637 50.0447 47.591 50.0447C45.1364 50.0447 42.8182 49.0901 41.3182 47.3174C39.6819 45.681 38.591 43.2265 38.591 40.9083V35.4537C38.591 34.6356 39.1364 34.0901 39.9546 34.0901C40.7728 34.0901 41.3182 34.6356 41.3182 35.4537V40.9083C41.3182 42.5447 42 44.181 43.2273 45.4083C44.3182 46.6356 45.9546 47.3174 47.7273 47.3174H48C48.6819 47.4537 49.3637 47.7265 49.9091 47.8628C50.1819 47.9992 50.4546 47.9992 50.7273 48.1356H50.8637C53.7273 49.4992 56.1819 51.5447 57.9546 53.9992C58.3637 54.681 58.2273 55.4992 57.6819 55.9083C57.2728 56.0447 57 56.181 56.7273 56.181ZM50.0455 88.6356H13.5C7.36368 88.6356 2.45459 83.7265 2.45459 77.5901V63.681C2.45459 59.9992 3.68186 56.181 6.00004 53.181C8.18186 50.3174 11.3182 48.1356 15.1364 47.0447H15.5455C17.7273 47.0447 19.6364 46.0901 20.8637 44.181C21.4091 43.3628 21.9546 42.1356 21.9546 40.6356V35.181C21.9546 34.3628 22.5 33.8174 23.3182 33.8174C24.1364 33.8174 24.6819 34.3628 24.6819 35.181V40.6356C24.6819 42.4083 24.1364 44.181 23.0455 45.8174C21.4091 48.2719 18.6819 49.7719 15.6819 49.7719C12.5455 50.7265 9.95459 52.4992 8.18186 54.8174C6.27277 57.4083 5.18186 60.5447 5.18186 63.681V77.5901C5.18186 82.2265 8.86368 85.9083 13.5 85.9083H50.0455C50.8637 85.9083 51.4091 86.4537 51.4091 87.2719C51.4091 88.0901 50.8637 88.6356 50.0455 88.6356Z" fill="url(#paint1_linear_247_760)"/>
<path d="M25.2275 58.0909C24.9548 58.0909 24.682 57.9546 24.5457 57.8182L12.8184 50.3182C12.1366 49.9091 12.0002 49.0909 12.4093 48.4091C12.8184 47.7273 13.6366 47.5909 14.3184 48L25.3639 55.0909L29.4548 53.0455L21.2729 46.0909C20.7275 45.5455 20.5911 44.7273 21.1366 44.1818C21.682 43.6364 22.5002 43.5 23.0457 44.0455L32.8639 52.3637C33.2729 52.6364 33.4093 53.1818 33.2729 53.5909C33.2729 54 33.0002 54.4091 32.4548 54.6818L25.7729 57.9546C25.6366 58.0909 25.3639 58.0909 25.2275 58.0909Z" fill="url(#paint2_linear_247_760)"/>
<path d="M38.7272 58.0906C38.5908 58.0906 38.3181 58.0906 38.1817 57.9542L31.4999 54.6815C31.0908 54.5451 30.8181 54.136 30.6817 53.5906C30.5453 53.0451 30.8181 52.636 31.0908 52.3633L40.0908 44.5906C40.6363 44.0451 41.4544 44.1815 41.9999 44.7269C42.5453 45.2724 42.409 46.0906 41.8635 46.636L34.4999 53.1815L38.5908 55.2269L49.3635 48.2724C50.0453 47.8633 50.8635 47.9996 51.2726 48.6815C51.6817 49.3633 51.5453 50.1815 50.8635 50.5906L39.409 57.9542C39.2726 57.9542 38.9999 58.0906 38.7272 58.0906ZM24.1363 20.1815C21.8181 20.1815 19.2272 19.636 16.7726 18.2724C16.3635 17.9996 16.0908 17.5906 16.0908 17.0451C15.9544 8.45419 23.0453 1.36328 31.6363 1.36328C40.2272 1.36328 47.3181 8.45419 47.3181 17.0451C47.3181 17.4542 47.1817 17.8633 46.7726 18.136C46.4999 18.4087 46.0908 18.5451 45.6817 18.4087L36.5453 16.3633C36.2726 16.3633 35.3181 16.9087 34.4999 17.1815C32.1817 18.4087 28.3635 20.1815 24.1363 20.1815ZM18.6817 16.2269C24.5453 19.0906 29.9999 16.3633 33.409 14.7269C34.909 14.0451 35.9999 13.4996 36.8181 13.636H36.9544L44.4544 15.2724C43.6363 8.99964 38.1817 4.09055 31.6363 4.09055C24.8181 4.09055 19.0908 9.40874 18.6817 16.2269Z" fill="url(#paint3_linear_247_760)"/>
<path d="M32.1817 80.3178C31.7726 80.3178 31.3635 80.0451 31.0908 79.7724L25.4999 71.3178C25.3635 71.0451 25.2271 70.636 25.3635 70.2269L28.6362 54.9542C28.7726 54.2724 29.4544 53.7269 30.2726 53.8633C30.9544 53.9997 31.4999 54.6815 31.3635 55.4997L28.2271 70.2269L32.3181 76.3633L36.1362 70.2269L32.7271 54.9542C32.5908 54.2724 32.9999 53.4542 33.818 53.3178C34.4999 53.1815 35.318 53.5906 35.4544 54.4087L38.7271 70.2269C38.8635 70.4997 38.7271 70.9087 38.5908 71.1815L33.409 79.636C33.1362 80.0451 32.7271 80.3178 32.1817 80.3178ZM13.4999 88.636C12.6817 88.636 12.1362 88.0906 12.1362 87.2724V72.6815C12.1362 71.8633 12.6817 71.3178 13.4999 71.3178C14.318 71.3178 14.8635 71.8633 14.8635 72.6815V87.2724C14.8635 88.0906 14.318 88.636 13.4999 88.636ZM82.2271 88.636H48.6817C45.6817 88.636 43.3635 86.1815 43.3635 83.3178V62.1815C43.3635 59.1815 45.8181 56.8633 48.6817 56.8633H82.2271C85.2271 56.8633 87.5453 59.1815 87.5453 62.1815V83.3178C87.5453 86.1815 85.2271 88.636 82.2271 88.636ZM48.6817 59.5906C47.3181 59.5906 46.0908 60.8178 46.0908 62.1815V83.3178C46.0908 84.6815 47.3181 85.9087 48.6817 85.9087H82.2271C83.5908 85.9087 84.8181 84.6815 84.8181 83.3178V62.1815C84.8181 60.8178 83.5908 59.5906 82.2271 59.5906H48.6817Z" fill="url(#paint4_linear_247_760)"/>
<path d="M74.3183 58.9092C73.5001 58.9092 72.9546 58.3637 72.9546 57.5455V55.9092C72.9546 54.1365 71.4546 52.6365 69.6819 52.6365H61.2274C59.4546 52.6365 57.9546 54.1365 57.9546 55.9092V57.5455C57.9546 58.3637 57.4092 58.9092 56.591 58.9092C55.7728 58.9092 55.2273 58.3637 55.2273 57.5455V55.9092C55.2273 52.5001 57.8183 49.9092 61.2274 49.9092H69.6819C73.091 49.9092 75.6819 52.5001 75.6819 55.9092V57.5455C75.6819 58.3637 75.1364 58.9092 74.3183 58.9092ZM68.0455 75.8183C67.3637 75.8183 66.8183 75.2728 66.6819 74.591C66.5455 73.9092 67.091 73.091 67.9092 73.091C75.2728 72.1365 81.4092 66.8183 83.591 59.7274C83.8637 59.0455 84.5455 58.6365 85.2273 58.7728C85.9092 59.0455 86.3183 59.7274 86.1819 60.4092C83.7274 68.591 76.6364 74.591 68.3183 75.6819C68.1819 75.8183 68.0455 75.8183 68.0455 75.8183ZM62.7273 75.8183H62.591C54.1364 74.591 47.1819 68.591 44.8637 60.5455C44.591 59.8637 45.1364 59.0455 45.8183 58.9092C46.5001 58.6365 47.3183 59.1819 47.4546 59.8637C49.5001 66.9546 55.6364 72.1365 63.0001 73.2274C63.6819 73.3637 64.2273 74.0455 64.2273 74.7274C63.9546 75.2728 63.4092 75.8183 62.7273 75.8183Z" fill="url(#paint5_linear_247_760)"/>
<path d="M68.0455 79.4996H62.7273C61.9091 79.4996 61.3636 78.9542 61.3636 78.136V71.3178C61.3636 70.4996 61.9091 69.9542 62.7273 69.9542H68.0455C68.8636 69.9542 69.4091 70.4996 69.4091 71.3178V78.136C69.4091 78.9542 68.8636 79.4996 68.0455 79.4996ZM64.0909 76.7724H66.6818V72.6815H64.0909V76.7724ZM71.5909 30.5451C63.5455 30.5451 57 23.9996 57 15.9542C57 7.90874 63.5455 1.36328 71.5909 1.36328C79.6364 1.36328 86.1818 7.90874 86.1818 15.9542C86.1818 23.9996 79.6364 30.5451 71.5909 30.5451ZM71.5909 4.09055C65.0455 4.09055 59.7273 9.40874 59.7273 15.9542C59.7273 22.4996 65.0455 27.8178 71.5909 27.8178C78.1364 27.8178 83.4545 22.4996 83.4545 15.9542C83.4545 9.40874 78.1364 4.09055 71.5909 4.09055Z" fill="url(#paint6_linear_247_760)"/>
<path d="M71.5908 24.9541C66.6817 24.9541 62.5908 20.8632 62.5908 15.9541C62.5908 11.045 66.6817 6.9541 71.5908 6.9541C76.4999 6.9541 80.5908 11.045 80.5908 15.9541C80.5908 20.8632 76.4999 24.9541 71.5908 24.9541ZM71.5908 9.68137C68.1817 9.68137 65.3181 12.545 65.3181 15.9541C65.3181 19.3632 68.1817 22.2268 71.5908 22.2268C74.9999 22.2268 77.8635 19.3632 77.8635 15.9541C77.8635 12.545 74.9999 9.68137 71.5908 9.68137ZM78.9545 43.7723C78.5454 43.7723 78.2726 43.6359 77.9999 43.3632L71.5908 36.6814L65.1817 43.3632C64.7726 43.7723 64.2272 43.9086 63.6817 43.6359C63.1363 43.3632 62.8635 42.9541 62.8635 42.4086V28.2268C62.8635 27.4086 63.409 26.8632 64.2272 26.8632C65.0454 26.8632 65.5908 27.4086 65.5908 28.2268V38.9996L70.6363 33.8177C71.1817 33.2723 72.1363 33.2723 72.5454 33.8177L77.5908 38.9996V28.2268C77.5908 27.4086 78.1363 26.8632 78.9545 26.8632C79.7726 26.8632 80.3181 27.4086 80.3181 28.2268V42.4086C80.3181 42.9541 80.0454 43.4996 79.4999 43.6359C79.3635 43.7723 79.0908 43.7723 78.9545 43.7723Z" fill="url(#paint7_linear_247_760)"/>
<defs>
<linearGradient id="paint0_linear_247_760" x1="31.6364" y1="13.7725" x2="31.6364" y2="38.727" gradientUnits="userSpaceOnUse">
<stop stop-color="#FD9F00"/>
<stop offset="1" stop-color="#FF0047"/>
</linearGradient>
<linearGradient id="paint1_linear_247_760" x1="30.3235" y1="33.8174" x2="30.3235" y2="88.6356" gradientUnits="userSpaceOnUse">
<stop stop-color="#FD9F00"/>
<stop offset="1" stop-color="#FF0047"/>
</linearGradient>
<linearGradient id="paint2_linear_247_760" x1="22.7516" y1="43.6982" x2="22.7516" y2="58.0909" gradientUnits="userSpaceOnUse">
<stop stop-color="#FD9F00"/>
<stop offset="1" stop-color="#FF0047"/>
</linearGradient>
<linearGradient id="paint3_linear_247_760" x1="33.7958" y1="1.36328" x2="33.7958" y2="58.0906" gradientUnits="userSpaceOnUse">
<stop stop-color="#FD9F00"/>
<stop offset="1" stop-color="#FF0047"/>
</linearGradient>
<linearGradient id="paint4_linear_247_760" x1="49.8408" y1="53.292" x2="49.8408" y2="88.636" gradientUnits="userSpaceOnUse">
<stop stop-color="#FD9F00"/>
<stop offset="1" stop-color="#FF0047"/>
</linearGradient>
<linearGradient id="paint5_linear_247_760" x1="65.5" y1="49.9092" x2="65.5" y2="75.8183" gradientUnits="userSpaceOnUse">
<stop stop-color="#FD9F00"/>
<stop offset="1" stop-color="#FF0047"/>
</linearGradient>
<linearGradient id="paint6_linear_247_760" x1="71.5909" y1="1.36328" x2="71.5909" y2="79.4996" gradientUnits="userSpaceOnUse">
<stop stop-color="#FD9F00"/>
<stop offset="1" stop-color="#FF0047"/>
</linearGradient>
<linearGradient id="paint7_linear_247_760" x1="71.5908" y1="6.9541" x2="71.5908" y2="43.7778" gradientUnits="userSpaceOnUse">
<stop stop-color="#FD9F00"/>
<stop offset="1" stop-color="#FF0047"/>
</linearGradient>
</defs>
</svg>
