<svg width="90" height="90" viewBox="0 0 90 90" fill="none" xmlns="http://www.w3.org/2000/svg">
<g clip-path="url(#clip0_245_756)">
<path d="M75 64.8539L71.1797 62.5651C70.0147 61.8686 68.6829 61.5006 67.3256 61.5001H61.5761C60.3992 61.4981 59.2271 61.6492 58.0892 61.9497L40.7659 66.6001C39.8326 66.8576 38.9749 67.3357 38.2651 67.9941C37.5552 68.6525 37.014 69.4718 36.687 70.3831L21.4496 62.1396C20.2139 61.4366 18.7677 61.1976 17.3715 61.4657C16.8448 61.5589 16.334 61.7266 15.8546 61.9639C14.7714 62.4829 13.8724 63.3202 13.278 64.3639C12.7582 65.2728 12.4848 66.3016 12.4849 67.3486C12.477 68.3981 12.7471 69.4311 13.2678 70.3425C13.7886 71.2538 14.5414 72.011 15.4496 72.5371L42.7588 88.8768C43.9448 89.6111 45.3122 90.0002 46.7072 90.0001H67.8422C68.786 90.0006 69.7213 89.8225 70.5988 89.4751L75 87.7369V90.0001H90V60.0001H75V64.8539ZM69.4965 86.6851C68.9711 86.8924 68.4114 86.9993 67.8465 87.0001H46.7072C45.8619 86.9994 45.0339 86.7613 44.3173 86.3131L16.971 69.9544C16.5146 69.6907 16.1361 69.3108 15.8742 68.8533C15.6123 68.3959 15.4762 67.8772 15.4798 67.3501C15.482 66.8237 15.6205 66.307 15.8818 65.8501C16.1807 65.332 16.63 64.9171 17.1701 64.6604C17.4075 64.5447 17.66 64.4629 17.9201 64.4174C18.1098 64.382 18.3023 64.364 18.4952 64.3638C19.0108 64.3624 19.5176 64.4971 19.9652 64.7536L36.4877 73.6817C36.5068 73.7732 36.5068 73.8634 36.531 73.9549C37.2416 76.5734 39.6167 78.3919 42.3304 78.3949C43.1654 78.3185 43.9923 78.171 44.8022 77.9539L60.3866 73.7836L59.6132 70.8854L44.0794 75.0374C43.3952 75.1949 42.5126 75.3751 42.3304 75.3904C41.6715 75.3917 41.0305 75.176 40.5064 74.7766C39.9823 74.3772 39.6043 73.8164 39.4307 73.1807C39.3823 72.9991 39.3538 72.8131 39.3435 72.6256C39.3435 72.6256 39.3319 72.2622 39.3435 72.1349C39.3994 71.522 39.6404 70.9407 40.0346 70.4681C40.4288 69.9956 40.9575 69.6542 41.5504 69.4893L58.8662 64.8567C59.7501 64.6201 60.6611 64.5002 61.5761 64.5001H67.3256C68.1401 64.5001 68.9393 64.7213 69.6371 65.1394L75 68.3504V84.5099L69.4965 86.6851ZM78 63.0001H87V87.0001H78V63.0001ZM61.8662 12.0001L53.82 3.95443C52.5696 2.69665 51.082 1.69948 49.4435 1.0207C47.8049 0.34191 46.048 -0.00500266 44.2744 5.45042e-05H25.4156C24.2516 0.00196675 23.1038 0.27296 22.0618 0.791867L18.6999 2.47337C18.0263 2.81238 17.2775 2.97446 16.524 2.94437L15 2.89093V5.45042e-05H0V33.0001H15V28.5001H17.5504L18.4579 29.1001C20.9974 30.7862 23.9537 31.7376 27 31.8492V51.0001H90V12.0001H61.8662ZM12 30.0001H3V3.00005H12V30.0001ZM20.1182 26.6039L18.4496 25.5001H15V5.89243L16.4143 5.94305C17.67 5.98774 18.9168 5.71753 20.0413 5.15705L23.4002 3.47537C24.026 3.16271 24.716 2.99998 25.4156 3.00005H44.274C45.6534 2.99607 47.0199 3.26577 48.2943 3.79353C49.5688 4.3213 50.7259 5.09665 51.6986 6.07468L57.624 12.0001H45.2462L41.6053 8.35993L39.4847 10.4804L50.0809 21.0769C51.2578 22.2488 51.2616 24.1531 50.0897 25.3309C48.9171 26.5079 47.0128 26.5116 45.8357 25.3397L36.9857 16.4897L35.9357 17.3899C33.0358 19.8524 28.7974 19.9154 25.8251 17.5394L24.9559 16.8347L23.0655 19.1654L23.9443 19.8779C24.8636 20.6126 25.8954 21.1942 27 21.6001V28.8481C24.5448 28.7391 22.1657 27.9633 20.1182 26.6041V26.6039ZM41.4557 25.1997L43.719 27.4637C46.0686 29.7781 49.8405 29.7818 52.194 27.4711C49.9922 30.8804 50.8609 35.4179 54.1663 37.7725C57.4717 40.1273 62.0441 39.4658 64.5469 36.2717C67.0496 33.0769 66.5978 28.4789 63.5199 25.8332C60.4431 23.1878 55.8287 23.4302 53.0464 26.3834C53.5514 25.5902 53.8595 24.6877 53.945 23.7513C54.0305 22.8149 53.8909 21.8716 53.5378 21.0001H73.6247C74.2697 24.7742 77.2258 27.7304 81 28.3756V34.6246C77.2258 35.2697 74.2697 38.2259 73.6245 42.0001H43.3755C42.7303 38.2259 39.7742 35.2697 36 34.6246V28.3756C38.1439 28.0144 40.0831 26.8855 41.4559 25.1997H41.4557ZM54 31.5001C54 29.0149 56.0149 27.0001 58.5 27.0001C60.9851 27.0001 63 29.0149 63 31.5001C63 33.9852 60.9851 36.0001 58.5 36.0001C56.0149 36.0001 54 33.9852 54 31.5001ZM87 48.0001H30V22.2282C32.378 22.4067 34.749 21.8009 36.75 20.5036L39.309 23.0626C38.7539 23.8167 38.0297 24.4301 37.1945 24.8534C36.3593 25.2768 35.4364 25.4982 34.5 25.5001H33V37.5001H34.5C37.8135 37.5001 40.5 40.1866 40.5 43.5001V45.0001H76.5V43.5001C76.5 40.1866 79.1865 37.5001 82.5 37.5001H84V25.5001H82.5C79.1865 25.5001 76.5 22.8136 76.5 19.5001V18.0001H51.246L48.246 15.0001H87V48.0001Z" fill="url(#paint0_linear_245_756)"/>
</g>
<defs>
<linearGradient id="paint0_linear_245_756" x1="45" y1="0" x2="45" y2="90.0001" gradientUnits="userSpaceOnUse">
<stop stop-color="#FEA100"/>
<stop offset="1" stop-color="#FF0047"/>
</linearGradient>
<clipPath id="clip0_245_756">
<rect width="90" height="90" fill="white"/>
</clipPath>
</defs>
</svg>
