<svg width="90" height="90" viewBox="0 0 90 90" fill="none" xmlns="http://www.w3.org/2000/svg">
<g clip-path="url(#clip0_243_713)">
<path d="M85.7812 75.9375H4.21875C3.09987 75.9375 2.02681 75.493 1.23564 74.7019C0.444474 73.9107 0 72.8376 0 71.7188L0 15.4688C0 14.3499 0.444474 13.2768 1.23564 12.4856C2.02681 11.6945 3.09987 11.25 4.21875 11.25H15.4688V14.0625H4.21875C3.84579 14.0625 3.4881 14.2107 3.22438 14.4744C2.96066 14.7381 2.8125 15.0958 2.8125 15.4688V71.7188C2.8125 72.0917 2.96066 72.4494 3.22438 72.7131C3.4881 72.9768 3.84579 73.125 4.21875 73.125H85.7812C86.1542 73.125 86.5119 72.9768 86.7756 72.7131C87.0393 72.4494 87.1875 72.0917 87.1875 71.7188V15.4688C87.1875 15.0958 87.0393 14.7381 86.7756 14.4744C86.5119 14.2107 86.1542 14.0625 85.7812 14.0625H74.5312V11.25H85.7812C86.9001 11.25 87.9732 11.6945 88.7644 12.4856C89.5555 13.2768 90 14.3499 90 15.4688V71.7188C90 72.8376 89.5555 73.9107 88.7644 74.7019C87.9732 75.493 86.9001 75.9375 85.7812 75.9375ZM68.9062 90H21.0938C20.7208 90 20.3631 89.8518 20.0994 89.5881C19.8357 89.3244 19.6875 88.9667 19.6875 88.5938C19.6897 86.7296 20.4312 84.9425 21.7494 83.6244C23.0675 82.3062 24.8546 81.5647 26.7188 81.5625H63.2812C65.1454 81.5647 66.9325 82.3062 68.2506 83.6244C69.5688 84.9425 70.3103 86.7296 70.3125 88.5938C70.3125 88.9667 70.1643 89.3244 69.9006 89.5881C69.6369 89.8518 69.2792 90 68.9062 90ZM22.7405 87.1875H67.2595C66.9676 86.3655 66.4286 85.654 65.7163 85.1505C65.0041 84.6469 64.1535 84.3761 63.2812 84.375H26.7188C25.8465 84.3761 24.9959 84.6469 24.2837 85.1505C23.5714 85.654 23.0324 86.3655 22.7405 87.1875Z" fill="url(#paint0_linear_243_713)"/>
<path d="M63.2812 84.375H26.7188C26.4959 84.3751 26.2763 84.3222 26.0779 84.2207C25.8795 84.1192 25.7081 83.972 25.5778 83.7913C25.4475 83.6105 25.362 83.4014 25.3283 83.1812C25.2946 82.9609 25.3138 82.7358 25.3842 82.5244L28.1967 74.0869C28.29 73.8067 28.4691 73.5631 28.7087 73.3904C28.9482 73.2178 29.236 73.1249 29.5312 73.125H60.4688C60.764 73.1249 61.0518 73.2178 61.2913 73.3904C61.5309 73.5631 61.71 73.8067 61.8033 74.0869L64.6158 82.5244C64.6862 82.7358 64.7054 82.9609 64.6717 83.1812C64.638 83.4014 64.5525 83.6105 64.4222 83.7913C64.2919 83.972 64.1205 84.1192 63.9221 84.2207C63.7237 84.3222 63.5041 84.3751 63.2812 84.375ZM28.6692 81.5625H61.3308L59.4548 75.9375H30.5452L28.6692 81.5625ZM80.1562 67.5H9.84375C8.72487 67.5 7.65181 67.0555 6.86064 66.2644C6.06947 65.4732 5.625 64.4001 5.625 63.2812V21.0938C5.625 19.9749 6.06947 18.9018 6.86064 18.1106C7.65181 17.3195 8.72487 16.875 9.84375 16.875H15.4688V19.6875H9.84375C9.47079 19.6875 9.1131 19.8357 8.84938 20.0994C8.58566 20.3631 8.4375 20.7208 8.4375 21.0938V63.2812C8.4375 63.6542 8.58566 64.0119 8.84938 64.2756C9.1131 64.5393 9.47079 64.6875 9.84375 64.6875H80.1562C80.5292 64.6875 80.8869 64.5393 81.1506 64.2756C81.4143 64.0119 81.5625 63.6542 81.5625 63.2812V21.0938C81.5625 20.7208 81.4143 20.3631 81.1506 20.0994C80.8869 19.8357 80.5292 19.6875 80.1562 19.6875H74.5312V16.875H80.1562C81.2751 16.875 82.3482 17.3195 83.1394 18.1106C83.9305 18.9018 84.375 19.9749 84.375 21.0938V63.2812C84.375 64.4001 83.9305 65.4732 83.1394 66.2644C82.3482 67.0555 81.2751 67.5 80.1562 67.5Z" fill="url(#paint1_linear_243_713)"/>
<path d="M74.5312 67.5H15.4688C15.0958 67.5 14.7381 67.3518 14.4744 67.0881C14.2107 66.8244 14.0625 66.4667 14.0625 66.0938V9.84375C14.0626 9.47082 14.2108 9.11319 14.4745 8.84953L22.912 0.412031C23.1757 0.14829 23.5333 7.96464e-05 23.9062 0L74.5312 0C74.9042 0 75.2619 0.148158 75.5256 0.411881C75.7893 0.675604 75.9375 1.03329 75.9375 1.40625V66.0938C75.9375 66.4667 75.7893 66.8244 75.5256 67.0881C75.2619 67.3518 74.9042 67.5 74.5312 67.5ZM16.875 64.6875H73.125V2.8125H24.4884L16.875 10.4259V64.6875Z" fill="url(#paint2_linear_243_713)"/>
<path d="M23.9062 11.25H15.4688V8.4375H22.5V1.40625H25.3125V9.84375C25.3125 10.2167 25.1643 10.5744 24.9006 10.8381C24.6369 11.1018 24.2792 11.25 23.9062 11.25ZM32.3438 47.8125H23.9062C23.5333 47.8125 23.1756 47.6643 22.9119 47.4006C22.6482 47.1369 22.5 46.7792 22.5 46.4062V37.9688C22.5 37.5958 22.6482 37.2381 22.9119 36.9744C23.1756 36.7107 23.5333 36.5625 23.9062 36.5625H32.3438C32.7167 36.5625 33.0744 36.7107 33.3381 36.9744C33.6018 37.2381 33.75 37.5958 33.75 37.9688V46.4062C33.75 46.7792 33.6018 47.1369 33.3381 47.4006C33.0744 47.6643 32.7167 47.8125 32.3438 47.8125ZM25.3125 45H30.9375V39.375H25.3125V45ZM36.5625 37.9688H39.375V40.7812H36.5625V37.9688ZM42.1875 37.9688H66.0938V40.7812H42.1875V37.9688ZM36.5625 43.5938H66.0938V46.4062H36.5625V43.5938ZM32.3438 61.875H23.9062C23.5333 61.875 23.1756 61.7268 22.9119 61.4631C22.6482 61.1994 22.5 60.8417 22.5 60.4688V52.0312C22.5 51.6583 22.6482 51.3006 22.9119 51.0369C23.1756 50.7732 23.5333 50.625 23.9062 50.625H32.3438C32.7167 50.625 33.0744 50.7732 33.3381 51.0369C33.6018 51.3006 33.75 51.6583 33.75 52.0312V60.4688C33.75 60.8417 33.6018 61.1994 33.3381 61.4631C33.0744 61.7268 32.7167 61.875 32.3438 61.875ZM25.3125 59.0625H30.9375V53.4375H25.3125V59.0625ZM36.5625 52.0312H39.375V54.8438H36.5625V52.0312ZM42.1875 52.0312H66.0938V54.8438H42.1875V52.0312ZM36.5625 57.6562H66.0938V60.4688H36.5625V57.6562ZM45 33.75C42.2187 33.75 39.4999 32.9252 37.1873 31.38C34.8747 29.8348 33.0723 27.6386 32.0079 25.069C30.9436 22.4994 30.6651 19.6719 31.2077 16.944C31.7503 14.2162 33.0896 11.7105 35.0563 9.74381C37.023 7.77713 39.5287 6.43781 42.2565 5.89521C44.9844 5.3526 47.8119 5.63109 50.3815 6.69544C52.9511 7.7598 55.1473 9.56223 56.6925 11.8748C58.2378 14.1874 59.0625 16.9062 59.0625 19.6875C59.0584 23.4158 57.5755 26.9903 54.9392 29.6267C52.3028 32.263 48.7284 33.7459 45 33.75ZM45 8.4375C42.775 8.4375 40.5999 9.0973 38.7498 10.3335C36.8998 11.5696 35.4578 13.3266 34.6064 15.3823C33.7549 17.438 33.5321 19.7 33.9662 21.8823C34.4002 24.0646 35.4717 26.0691 37.045 27.6425C38.6184 29.2158 40.6229 30.2873 42.8052 30.7213C44.9875 31.1554 47.2495 30.9326 49.3052 30.0811C51.3609 29.2297 53.1179 27.7877 54.354 25.9377C55.5902 24.0876 56.25 21.9125 56.25 19.6875C56.2467 16.7048 55.0603 13.8453 52.9513 11.7362C50.8422 9.62719 47.9827 8.44085 45 8.4375Z" fill="url(#paint3_linear_243_713)"/>
<path d="M42.1876 25.3126C41.8146 25.3125 41.457 25.1643 41.1934 24.9005L38.3809 22.088L40.3693 20.0996L42.1876 21.9179L49.6309 14.4746L51.6193 16.463L43.1818 24.9005C42.9181 25.1643 42.5605 25.3125 42.1876 25.3126Z" fill="url(#paint4_linear_243_713)"/>
</g>
<defs>
<linearGradient id="paint0_linear_243_713" x1="45" y1="11.25" x2="45" y2="90" gradientUnits="userSpaceOnUse">
<stop stop-color="#FD9F01"/>
<stop offset="1" stop-color="#FF0047"/>
</linearGradient>
<linearGradient id="paint1_linear_243_713" x1="45" y1="16.875" x2="45" y2="84.375" gradientUnits="userSpaceOnUse">
<stop stop-color="#FD9F01"/>
<stop offset="1" stop-color="#FF0047"/>
</linearGradient>
<linearGradient id="paint2_linear_243_713" x1="45" y1="0" x2="45" y2="67.5" gradientUnits="userSpaceOnUse">
<stop stop-color="#FD9F01"/>
<stop offset="1" stop-color="#FF0047"/>
</linearGradient>
<linearGradient id="paint3_linear_243_713" x1="40.7812" y1="1.40625" x2="40.7813" y2="61.875" gradientUnits="userSpaceOnUse">
<stop stop-color="#FD9F01"/>
<stop offset="1" stop-color="#FF0047"/>
</linearGradient>
<linearGradient id="paint4_linear_243_713" x1="45.0001" y1="14.4746" x2="45.0001" y2="25.3126" gradientUnits="userSpaceOnUse">
<stop stop-color="#FD9F01"/>
<stop offset="1" stop-color="#FF0047"/>
</linearGradient>
<clipPath id="clip0_243_713">
<rect width="90" height="90" fill="white"/>
</clipPath>
</defs>
</svg>
