<svg width="90" height="90" viewBox="0 0 90 90" fill="none" xmlns="http://www.w3.org/2000/svg">
<path d="M90 45.0001C90 22.7175 71.9677 4.68164 49.6818 4.68164H40.3184C18.0352 4.68164 0 22.7149 0 45.0001C0 49.5836 0.766231 54.0858 2.27742 58.3818C2.39346 58.7116 2.63577 58.9818 2.95105 59.133C3.26633 59.2842 3.62876 59.3039 3.95859 59.1879C4.28843 59.0719 4.55866 58.8295 4.70984 58.5143C4.86102 58.199 4.88076 57.8366 4.76473 57.5067C3.35268 53.4926 2.63672 49.2847 2.63672 45.0001C2.63672 24.1746 19.4901 7.31836 40.3184 7.31836C50.3837 7.31836 59.8463 11.2379 66.9635 18.355C74.0805 25.4722 78.0001 34.9348 78.0001 45.0001C78.0001 65.8257 61.1469 82.6816 40.3184 82.6816C25.9696 82.6816 13.1518 74.6027 6.77689 62.1888C6.61717 61.8778 6.34043 61.6429 6.00755 61.5359C5.67466 61.4289 5.3129 61.4585 5.00186 61.6182C4.69081 61.778 4.45595 62.0547 4.34894 62.3876C4.24193 62.7205 4.27155 63.0822 4.43127 63.3933C11.2451 76.6612 24.9509 85.3167 40.3144 85.3183L40.3184 85.3185H49.6818C72.0151 85.3185 90 67.1968 90 45.0001ZM74.9712 72.9317H69.3918C71.4964 70.7434 73.3261 68.3584 74.8631 65.8184H81.0944C79.3559 68.434 77.2991 70.8234 74.9712 72.9317ZM66.6118 75.5684H71.7253C67.0577 78.9494 61.7124 81.1918 56.0338 82.1504C59.8486 80.5363 63.4138 78.3278 66.6118 75.5684ZM76.3263 63.1818C77.4782 60.9052 78.4085 58.5232 79.1044 56.0685H85.719C84.9635 58.5379 83.9528 60.9218 82.7033 63.1818H76.3263ZM86.4165 53.4318H79.756C80.2509 51.0906 80.5377 48.7102 80.6131 46.3184H87.3378C87.2541 48.7547 86.9425 51.1296 86.4165 53.4318ZM87.338 43.6817H80.6133C80.5378 41.29 80.251 38.9096 79.7562 36.5684H86.4206C86.9472 38.8834 87.2553 41.2628 87.338 43.6817ZM85.7118 33.9316H79.1044C78.4085 31.4769 77.4782 29.0949 76.3263 26.8183H82.6936C83.9421 29.0791 84.9536 31.4629 85.7118 33.9316ZM81.1034 24.1816H74.8633C73.3263 21.6415 71.4966 19.2567 69.3919 17.0682H74.9762C77.2931 19.1715 79.3557 21.5556 81.1034 24.1816ZM66.612 14.4317C63.4233 11.6804 59.8692 9.47678 56.0668 7.86381C61.7148 8.83271 67.0669 11.0792 71.7144 14.4317H66.612Z" fill="url(#paint0_linear_243_749)"/>
<path d="M62.0477 24.1853C62.2896 24.4378 62.6218 24.5838 62.9714 24.5913C63.321 24.5988 63.6592 24.4671 63.9117 24.2252C64.1641 23.9833 64.3102 23.6511 64.3176 23.3015C64.3251 22.9519 64.1934 22.6137 63.9516 22.3612C57.7178 15.8554 49.3246 12.2725 40.3185 12.2725C22.2722 12.2725 7.59082 26.9542 7.59082 45.0003C7.59082 63.0463 22.2722 77.7279 40.3185 77.7279C58.3647 77.7279 73.0461 63.0463 73.0461 45.0003C73.0461 38.4227 71.102 32.079 67.4239 26.6549C67.3268 26.5115 67.2024 26.3887 67.0578 26.2935C66.9133 26.1983 66.7513 26.1324 66.5813 26.0998C66.4112 26.0672 66.2364 26.0684 66.0668 26.1034C65.8973 26.1384 65.7363 26.2064 65.593 26.3037C65.4497 26.4008 65.3269 26.5252 65.2317 26.6698C65.1365 26.8144 65.0707 26.9764 65.0381 27.1464C65.0055 27.3164 65.0067 27.4912 65.0416 27.6608C65.0766 27.8303 65.1446 27.9913 65.2418 28.1346C68.6224 33.1205 70.4094 38.9525 70.4094 45.0003C70.4094 61.5925 56.9106 75.0912 40.3183 75.0912C23.7261 75.0912 10.2274 61.5925 10.2274 45.0003C10.2274 28.4079 23.7261 14.9092 40.3183 14.9092C48.599 14.9092 56.316 18.2037 62.0477 24.1853Z" fill="url(#paint1_linear_243_749)"/>
<path d="M35.1278 45.5429C35.3745 45.7871 35.7077 45.9241 36.0548 45.924H36.0622C38.3366 45.9114 41.377 45.8964 42.9433 45.8964C47.5929 45.8964 51.5211 42.0553 51.5211 37.5088C51.5211 32.9623 47.5929 29.1211 42.9433 29.1211H36.0112C35.8378 29.1211 35.6661 29.1554 35.5059 29.2219C35.3457 29.2884 35.2003 29.3858 35.0778 29.5086C34.9553 29.6314 34.8583 29.7772 34.7923 29.9376C34.7262 30.0979 34.6924 30.2697 34.6929 30.4431C34.7187 39.3992 34.6978 37.4582 34.7365 44.6125C34.7384 44.9623 34.8792 45.2969 35.1278 45.5429ZM42.9433 31.7578C46.1637 31.7578 48.8844 34.3914 48.8844 37.5088C48.8844 40.626 46.1637 43.2597 42.9433 43.2597C41.6598 43.2597 39.3945 43.2697 37.3663 43.2803C37.3368 37.5335 37.3533 38.9641 37.3333 31.7578H42.9433Z" fill="url(#paint2_linear_243_749)"/>
<path d="M42.9434 51.1699C46.5842 51.1699 50.0353 49.762 52.6607 47.2055C55.3265 44.6099 56.7946 41.1663 56.7946 37.5088C56.7946 33.8514 55.3265 30.4076 52.6607 27.8119C50.0351 25.2555 46.5842 23.8477 42.9434 23.8477H33.3666C31.1859 23.8477 29.4116 25.622 29.4116 27.8027V52.201H27.7974C25.6166 52.201 23.8423 53.9753 23.8423 56.1561C23.8423 58.3368 25.6166 60.1112 27.7974 60.1112H29.4116V62.1966C29.4116 64.3774 31.1859 66.1517 33.3666 66.1517C35.5474 66.1517 37.3217 64.3774 37.3217 62.1966V60.1112H40.3184C41.0467 60.1112 41.6368 59.5211 41.6368 58.7928C41.6368 58.0645 41.0467 57.4744 40.3184 57.4744H36.0034C35.8302 57.4744 35.6588 57.5085 35.4988 57.5747C35.3389 57.641 35.1935 57.7381 35.0711 57.8605C34.9487 57.9829 34.8516 58.1283 34.7853 58.2882C34.7191 58.4482 34.685 58.6197 34.685 58.7928V62.1966C34.685 62.9237 34.0937 63.515 33.3666 63.515C32.6396 63.515 32.0483 62.9237 32.0483 62.1966V58.7928C32.0483 58.0645 31.4582 57.4744 30.7299 57.4744H27.7974C27.0703 57.4744 26.479 56.8831 26.479 56.1561C26.479 55.429 27.0703 54.8377 27.7974 54.8377H30.7299C31.4582 54.8377 32.0483 54.2476 32.0483 53.5194V27.8027C32.0483 27.0757 32.6396 26.4844 33.3666 26.4844H42.9434C45.893 26.4844 48.6909 27.6268 50.8212 29.701C52.9728 31.7961 54.1577 34.5689 54.1577 37.5088C54.1577 40.4488 52.9728 43.2214 50.8212 45.3163C48.6909 47.3907 45.893 48.5331 42.9434 48.5331C41.3787 48.5331 38.3017 48.5484 35.996 48.5611C35.6476 48.563 35.3142 48.7028 35.0685 48.9498C34.8229 49.1969 34.685 49.5311 34.685 49.8795V53.5194C34.685 54.2476 35.2751 54.8377 36.0034 54.8377H47.799C48.526 54.8377 49.1173 55.429 49.1173 56.1561C49.1173 56.8831 48.526 57.4744 47.799 57.4744H45.5898C44.8615 57.4744 44.2714 58.0645 44.2714 58.7928C44.2714 59.5211 44.8615 60.1112 45.5898 60.1112H47.799C49.9797 60.1112 51.7541 58.3368 51.7541 56.1561C51.7541 53.9753 49.9797 52.201 47.799 52.201H37.3217V51.1908C39.3743 51.1799 41.6665 51.1699 42.9434 51.1699Z" fill="url(#paint3_linear_243_749)"/>
<defs>
<linearGradient id="paint0_linear_243_749" x1="45" y1="4.68164" x2="45" y2="85.3185" gradientUnits="userSpaceOnUse">
<stop stop-color="#FDA000"/>
<stop offset="1" stop-color="#FF0047"/>
</linearGradient>
<linearGradient id="paint1_linear_243_749" x1="40.3185" y1="12.2725" x2="40.3185" y2="77.7279" gradientUnits="userSpaceOnUse">
<stop stop-color="#FDA000"/>
<stop offset="1" stop-color="#FF0047"/>
</linearGradient>
<linearGradient id="paint2_linear_243_749" x1="43.107" y1="29.1211" x2="43.107" y2="45.924" gradientUnits="userSpaceOnUse">
<stop stop-color="#FDA000"/>
<stop offset="1" stop-color="#FF0047"/>
</linearGradient>
<linearGradient id="paint3_linear_243_749" x1="40.3184" y1="23.8477" x2="40.3184" y2="66.1517" gradientUnits="userSpaceOnUse">
<stop stop-color="#FDA000"/>
<stop offset="1" stop-color="#FF0047"/>
</linearGradient>
</defs>
</svg>
